<?xml version="1.0" standalone="no"?>
 <!DOCTYPE svg PUBLIC "-//W3C//DTD SVG 1.1//EN" 
 "http://www.w3.org/Graphics/SVG/1.1/DTD/svg11.dtd"> 
<svg
  xmlns:svg="http://www.w3.org/2000/svg"
  xmlns="http://www.w3.org/2000/svg"
  xmlns:xlink="http://www.w3.org/1999/xlink"
  version="1.1"
  width="29.700220cm" height="21.000720cm" viewBox="0 0 116930 82680">
<title>SVG Picture created as project-B_SilkS.svg date 2022/07/14 17:58:54 </title>
  <desc>Picture generated by PCBNEW </desc>
<g style="fill:#000000; fill-opacity:1;stroke:#000000; stroke-opacity:1;
stroke-linecap:round; stroke-linejoin:round;"
 transform="translate(0 0) scale(1 1)">
</g>
<g style="fill:#000000; fill-opacity:0.0; 
stroke:#000000; stroke-width:-0.000393701; stroke-opacity:1; 
stroke-linecap:round; stroke-linejoin:round;">
</g>
<g style="fill:#000000; fill-opacity:0.0; 
stroke:#000000; stroke-width:98.4252; stroke-opacity:1; 
stroke-linecap:round; stroke-linejoin:round;">
<text x="51223" y="30974.9"
transform="scale(-1 1) translate(-102446.000000 0)"
textLength="4818.15" font-size="524.934" lengthAdjust="spacingAndGlyphs"
text-anchor="start" opacity="0">RFM95 Breakout</text>
<path d="M50840 30956
L50971 30768
" />
<path d="M51065 30956
L51065 30562
L50915 30562
L50877 30581
L50859 30599
L50840 30637
L50840 30693
L50859 30731
L50877 30749
L50915 30768
L51065 30768
" />
<path d="M50540 30749
L50671 30749
" />
<path d="M50671 30956
L50671 30562
L50484 30562
" />
<path d="M50334 30956
L50334 30562
L50202 30843
L50071 30562
L50071 30956
" />
<path d="M49865 30956
L49790 30956
L49752 30937
L49734 30918
L49696 30862
L49677 30787
L49677 30637
L49696 30599
L49715 30581
L49752 30562
L49827 30562
L49865 30581
L49884 30599
L49902 30637
L49902 30731
L49884 30768
L49865 30787
L49827 30806
L49752 30806
L49715 30787
L49696 30768
L49677 30731
" />
<path d="M49321 30562
L49509 30562
L49527 30749
L49509 30731
L49471 30712
L49377 30712
L49340 30731
L49321 30749
L49303 30787
L49303 30881
L49321 30918
L49340 30937
L49377 30956
L49471 30956
L49509 30937
L49527 30918
" />
<path d="M48703 30749
L48646 30768
L48628 30787
L48609 30824
L48609 30881
L48628 30918
L48646 30937
L48684 30956
L48834 30956
L48834 30562
L48703 30562
L48665 30581
L48646 30599
L48628 30637
L48628 30674
L48646 30712
L48665 30731
L48703 30749
L48834 30749
" />
<path d="M48440 30956
L48440 30693
" />
<path d="M48440 30768
L48421 30731
L48403 30712
L48365 30693
L48328 30693
" />
<path d="M48046 30937
L48084 30956
L48159 30956
L48196 30937
L48215 30899
L48215 30749
L48196 30712
L48159 30693
L48084 30693
L48046 30712
L48028 30749
L48028 30787
L48215 30824
" />
<path d="M47690 30956
L47690 30749
L47709 30712
L47746 30693
L47821 30693
L47859 30712
" />
<path d="M47690 30937
L47728 30956
L47821 30956
L47859 30937
L47878 30899
L47878 30862
L47859 30824
L47821 30806
L47728 30806
L47690 30787
" />
<path d="M47503 30956
L47503 30562
" />
<path d="M47465 30806
L47353 30956
" />
<path d="M47353 30693
L47503 30843
" />
<path d="M47128 30956
L47165 30937
L47184 30918
L47203 30881
L47203 30768
L47184 30731
L47165 30712
L47128 30693
L47072 30693
L47034 30712
L47015 30731
L46997 30768
L46997 30881
L47015 30918
L47034 30937
L47072 30956
L47128 30956
" />
<path d="M46659 30693
L46659 30956
" />
<path d="M46828 30693
L46828 30899
L46809 30937
L46772 30956
L46715 30956
L46678 30937
L46659 30918
" />
<path d="M46528 30693
L46378 30693
" />
<path d="M46472 30562
L46472 30899
L46453 30937
L46415 30956
L46378 30956
" />
<text x="51223" y="31663.9"
transform="scale(-1 1) translate(-102446.000000 0)"
textLength="2534.21" font-size="524.934" lengthAdjust="spacingAndGlyphs"
text-anchor="start" opacity="0">WA.09.01</text>
<path d="M51102 31251
L51009 31645
L50934 31363
L50859 31645
L50765 31251
" />
<path d="M50634 31532
L50446 31532
" />
<path d="M50671 31645
L50540 31251
L50409 31645
" />
<path d="M50277 31607
L50259 31626
L50277 31645
L50296 31626
L50277 31607
L50277 31645
" />
<path d="M50015 31251
L49977 31251
L49940 31270
L49921 31288
L49902 31326
L49884 31401
L49884 31495
L49902 31570
L49921 31607
L49940 31626
L49977 31645
L50015 31645
L50052 31626
L50071 31607
L50090 31570
L50109 31495
L50109 31401
L50090 31326
L50071 31288
L50052 31270
L50015 31251
" />
<path d="M49696 31645
L49621 31645
L49584 31626
L49565 31607
L49527 31551
L49509 31476
L49509 31326
L49527 31288
L49546 31270
L49584 31251
L49659 31251
L49696 31270
L49715 31288
L49734 31326
L49734 31420
L49715 31457
L49696 31476
L49659 31495
L49584 31495
L49546 31476
L49527 31457
L49509 31420
" />
<path d="M49340 31607
L49321 31626
L49340 31645
L49359 31626
L49340 31607
L49340 31645
" />
<path d="M49078 31251
L49040 31251
L49003 31270
L48984 31288
L48965 31326
L48946 31401
L48946 31495
L48965 31570
L48984 31607
L49003 31626
L49040 31645
L49078 31645
L49115 31626
L49134 31607
L49153 31570
L49171 31495
L49171 31401
L49153 31326
L49134 31288
L49115 31270
L49078 31251
" />
<path d="M48571 31645
L48796 31645
" />
<path d="M48684 31645
L48684 31251
L48721 31307
L48759 31345
L48796 31363
" />
<text x="51223" y="32352.8"
transform="scale(-1 1) translate(-102446.000000 0)"
textLength="1971.78" font-size="524.934" lengthAdjust="spacingAndGlyphs"
text-anchor="start" opacity="0">rev. 1b</text>
<path d="M51065 32334
L51065 32071
" />
<path d="M51065 32146
L51046 32109
L51027 32090
L50990 32071
L50952 32071
" />
<path d="M50671 32315
L50709 32334
L50784 32334
L50821 32315
L50840 32277
L50840 32127
L50821 32090
L50784 32071
L50709 32071
L50671 32090
L50652 32127
L50652 32165
L50840 32202
" />
<path d="M50521 32071
L50427 32334
L50334 32071
" />
<path d="M50184 32296
L50165 32315
L50184 32334
L50202 32315
L50184 32296
L50184 32334
" />
<path d="M49490 32334
L49715 32334
" />
<path d="M49602 32334
L49602 31940
L49640 31996
L49677 32034
L49715 32052
" />
<path d="M49321 32334
L49321 31940
" />
<path d="M49321 32090
L49284 32071
L49209 32071
L49171 32090
L49153 32109
L49134 32146
L49134 32259
L49153 32296
L49171 32315
L49209 32334
L49284 32334
L49321 32315
" />
<text x="53744" y="39392.9"
transform="scale(-1 1) translate(-107488.000000 0)"
textLength="1240.63" font-size="524.934" lengthAdjust="spacingAndGlyphs"
text-anchor="start" opacity="0">DIO2</text>
<path d="M53586 39374
L53586 38980
L53492 38980
L53436 38999
L53398 39036
L53380 39074
L53361 39149
L53361 39205
L53380 39280
L53398 39317
L53436 39355
L53492 39374
L53586 39374
" />
<path d="M53192 39374
L53192 38980
" />
<path d="M52930 38980
L52855 38980
L52817 38999
L52780 39036
L52761 39111
L52761 39242
L52780 39317
L52817 39355
L52855 39374
L52930 39374
L52967 39355
L53005 39317
L53023 39242
L53023 39111
L53005 39036
L52967 38999
L52930 38980
" />
<path d="M52611 39017
L52592 38999
L52555 38980
L52461 38980
L52423 38999
L52405 39017
L52386 39055
L52386 39092
L52405 39149
L52630 39374
L52386 39374
" />
<text x="53744" y="38394.9"
transform="scale(-1 1) translate(-107488.000000 0)"
textLength="1240.63" font-size="524.934" lengthAdjust="spacingAndGlyphs"
text-anchor="start" opacity="0">DIO1</text>
<path d="M53586 38376
L53586 37982
L53492 37982
L53436 38001
L53398 38038
L53380 38076
L53361 38151
L53361 38207
L53380 38282
L53398 38319
L53436 38357
L53492 38376
L53586 38376
" />
<path d="M53192 38376
L53192 37982
" />
<path d="M52930 37982
L52855 37982
L52817 38001
L52780 38038
L52761 38113
L52761 38244
L52780 38319
L52817 38357
L52855 38376
L52930 38376
L52967 38357
L53005 38319
L53023 38244
L53023 38113
L53005 38038
L52967 38001
L52930 37982
" />
<path d="M52386 38376
L52611 38376
" />
<path d="M52498 38376
L52498 37982
L52536 38038
L52573 38076
L52611 38094
" />
<text x="53744" y="37392.9"
transform="scale(-1 1) translate(-107488.000000 0)"
textLength="1240.63" font-size="524.934" lengthAdjust="spacingAndGlyphs"
text-anchor="start" opacity="0">DIO0</text>
<path d="M53586 37374
L53586 36980
L53492 36980
L53436 36999
L53398 37036
L53380 37074
L53361 37149
L53361 37205
L53380 37280
L53398 37317
L53436 37355
L53492 37374
L53586 37374
" />
<path d="M53192 37374
L53192 36980
" />
<path d="M52930 36980
L52855 36980
L52817 36999
L52780 37036
L52761 37111
L52761 37242
L52780 37317
L52817 37355
L52855 37374
L52930 37374
L52967 37355
L53005 37317
L53023 37242
L53023 37111
L53005 37036
L52967 36999
L52930 36980
" />
<path d="M52517 36980
L52480 36980
L52442 36999
L52423 37017
L52405 37055
L52386 37130
L52386 37224
L52405 37299
L52423 37336
L52442 37355
L52480 37374
L52517 37374
L52555 37355
L52573 37336
L52592 37299
L52611 37224
L52611 37130
L52592 37055
L52573 37017
L52555 36999
L52517 36980
" />
<text x="53744" y="36390.9"
transform="scale(-1 1) translate(-107488.000000 0)"
textLength="1146.89" font-size="524.934" lengthAdjust="spacingAndGlyphs"
text-anchor="start" opacity="0">3.3V</text>
<path d="M53623 35978
L53380 35978
L53511 36128
L53455 36128
L53417 36147
L53398 36165
L53380 36203
L53380 36297
L53398 36334
L53417 36353
L53455 36372
L53567 36372
L53605 36353
L53623 36334
" />
<path d="M53211 36334
L53192 36353
L53211 36372
L53230 36353
L53211 36334
L53211 36372
" />
<path d="M53061 35978
L52817 35978
L52948 36128
L52892 36128
L52855 36147
L52836 36165
L52817 36203
L52817 36297
L52836 36334
L52855 36353
L52892 36372
L53005 36372
L53042 36353
L53061 36334
" />
<path d="M52705 35978
L52573 36372
L52442 35978
" />
<text x="53744" y="35389.9"
transform="scale(-1 1) translate(-107488.000000 0)"
textLength="1240.63" font-size="524.934" lengthAdjust="spacingAndGlyphs"
text-anchor="start" opacity="0">DIO4</text>
<path d="M53586 35371
L53586 34977
L53492 34977
L53436 34996
L53398 35033
L53380 35071
L53361 35146
L53361 35202
L53380 35277
L53398 35314
L53436 35352
L53492 35371
L53586 35371
" />
<path d="M53192 35371
L53192 34977
" />
<path d="M52930 34977
L52855 34977
L52817 34996
L52780 35033
L52761 35108
L52761 35239
L52780 35314
L52817 35352
L52855 35371
L52930 35371
L52967 35352
L53005 35314
L53023 35239
L53023 35108
L53005 35033
L52967 34996
L52930 34977
" />
<path d="M52423 35108
L52423 35371
" />
<path d="M52517 34958
L52611 35239
L52367 35239
" />
<text x="53744" y="34387.9"
transform="scale(-1 1) translate(-107488.000000 0)"
textLength="1240.63" font-size="524.934" lengthAdjust="spacingAndGlyphs"
text-anchor="start" opacity="0">DIO3</text>
<path d="M53586 34369
L53586 33975
L53492 33975
L53436 33994
L53398 34031
L53380 34069
L53361 34144
L53361 34200
L53380 34275
L53398 34312
L53436 34350
L53492 34369
L53586 34369
" />
<path d="M53192 34369
L53192 33975
" />
<path d="M52930 33975
L52855 33975
L52817 33994
L52780 34031
L52761 34106
L52761 34237
L52780 34312
L52817 34350
L52855 34369
L52930 34369
L52967 34350
L53005 34312
L53023 34237
L53023 34106
L53005 34031
L52967 33994
L52930 33975
" />
<path d="M52630 33975
L52386 33975
L52517 34125
L52461 34125
L52423 34144
L52405 34162
L52386 34200
L52386 34294
L52405 34331
L52423 34350
L52461 34369
L52573 34369
L52611 34350
L52630 34331
" />
<text x="53744" y="33381.9"
transform="scale(-1 1) translate(-107488.000000 0)"
textLength="921.916" font-size="524.934" lengthAdjust="spacingAndGlyphs"
text-anchor="start" opacity="0">ANT</text>
<path d="M53605 33250
L53417 33250
" />
<path d="M53642 33363
L53511 32969
L53380 33363
" />
<path d="M53248 33363
L53248 32969
L53023 33363
L53023 32969
" />
<path d="M52892 32969
L52667 32969
" />
<path d="M52780 33363
L52780 32969
" />
<text x="47184" y="39381.9"
transform="scale(-1 1) translate(-94368.000000 0)"
textLength="1071.9" font-size="524.934" lengthAdjust="spacingAndGlyphs"
text-anchor="end" opacity="0">GND</text>
<path d="M48147 38988
L48185 38969
L48241 38969
L48297 38988
L48335 39025
L48354 39063
L48372 39138
L48372 39194
L48354 39269
L48335 39306
L48297 39344
L48241 39363
L48204 39363
L48147 39344
L48129 39325
L48129 39194
L48204 39194
" />
<path d="M47960 39363
L47960 38969
L47735 39363
L47735 38969
" />
<path d="M47547 39363
L47547 38969
L47454 38969
L47397 38988
L47360 39025
L47341 39063
L47322 39138
L47322 39194
L47341 39269
L47360 39306
L47397 39344
L47454 39363
L47547 39363
" />
<text x="47184" y="38400.9"
transform="scale(-1 1) translate(-94368.000000 0)"
textLength="1296.87" font-size="524.934" lengthAdjust="spacingAndGlyphs"
text-anchor="end" opacity="0">MISO</text>
<path d="M48579 38382
L48579 37988
L48447 38269
L48316 37988
L48316 38382
" />
<path d="M48129 38382
L48129 37988
" />
<path d="M47960 38363
L47904 38382
L47810 38382
L47772 38363
L47754 38344
L47735 38307
L47735 38269
L47754 38232
L47772 38213
L47810 38194
L47885 38175
L47922 38157
L47941 38138
L47960 38100
L47960 38063
L47941 38025
L47922 38007
L47885 37988
L47791 37988
L47735 38007
" />
<path d="M47491 37988
L47416 37988
L47379 38007
L47341 38044
L47322 38119
L47322 38250
L47341 38325
L47379 38363
L47416 38382
L47491 38382
L47529 38363
L47566 38325
L47585 38250
L47585 38119
L47566 38044
L47529 38007
L47491 37988
" />
<text x="47184" y="37397.9"
transform="scale(-1 1) translate(-94368.000000 0)"
textLength="1296.87" font-size="524.934" lengthAdjust="spacingAndGlyphs"
text-anchor="end" opacity="0">MOSI</text>
<path d="M48579 37379
L48579 36985
L48447 37266
L48316 36985
L48316 37379
" />
<path d="M48054 36985
L47979 36985
L47941 37004
L47904 37041
L47885 37116
L47885 37247
L47904 37322
L47941 37360
L47979 37379
L48054 37379
L48091 37360
L48129 37322
L48147 37247
L48147 37116
L48129 37041
L48091 37004
L48054 36985
" />
<path d="M47735 37360
L47679 37379
L47585 37379
L47547 37360
L47529 37341
L47510 37304
L47510 37266
L47529 37229
L47547 37210
L47585 37191
L47660 37172
L47697 37154
L47716 37135
L47735 37097
L47735 37060
L47716 37022
L47697 37004
L47660 36985
L47566 36985
L47510 37004
" />
<path d="M47341 37379
L47341 36985
" />
<text x="47184" y="36401.9"
transform="scale(-1 1) translate(-94368.000000 0)"
textLength="1034.4" font-size="524.934" lengthAdjust="spacingAndGlyphs"
text-anchor="end" opacity="0">SCK</text>
<path d="M48335 36364
L48279 36383
L48185 36383
L48147 36364
L48129 36345
L48110 36308
L48110 36270
L48129 36233
L48147 36214
L48185 36195
L48260 36176
L48297 36158
L48316 36139
L48335 36101
L48335 36064
L48316 36026
L48297 36008
L48260 35989
L48166 35989
L48110 36008
" />
<path d="M47716 36345
L47735 36364
L47791 36383
L47829 36383
L47885 36364
L47922 36326
L47941 36289
L47960 36214
L47960 36158
L47941 36083
L47922 36045
L47885 36008
L47829 35989
L47791 35989
L47735 36008
L47716 36026
" />
<path d="M47547 36383
L47547 35989
" />
<path d="M47322 36383
L47491 36158
" />
<path d="M47322 35989
L47547 36214
" />
<text x="47184" y="35371.9"
transform="scale(-1 1) translate(-94368.000000 0)"
textLength="1034.4" font-size="524.934" lengthAdjust="spacingAndGlyphs"
text-anchor="end" opacity="0">NSS</text>
<path d="M48316 35353
L48316 34959
L48091 35353
L48091 34959
" />
<path d="M47922 35334
L47866 35353
L47772 35353
L47735 35334
L47716 35315
L47697 35278
L47697 35240
L47716 35203
L47735 35184
L47772 35165
L47847 35146
L47885 35128
L47904 35109
L47922 35071
L47922 35034
L47904 34996
L47885 34978
L47847 34959
L47754 34959
L47697 34978
" />
<path d="M47547 35334
L47491 35353
L47397 35353
L47360 35334
L47341 35315
L47322 35278
L47322 35240
L47341 35203
L47360 35184
L47397 35165
L47472 35146
L47510 35128
L47529 35109
L47547 35071
L47547 35034
L47529 34996
L47510 34978
L47472 34959
L47379 34959
L47322 34978
" />
<text x="47184" y="34373.9"
transform="scale(-1 1) translate(-94368.000000 0)"
textLength="940.664" font-size="524.934" lengthAdjust="spacingAndGlyphs"
text-anchor="end" opacity="0">RST</text>
<path d="M47997 34355
L48129 34167
" />
<path d="M48222 34355
L48222 33961
L48072 33961
L48035 33980
L48016 33998
L47997 34036
L47997 34092
L48016 34130
L48035 34148
L48072 34167
L48222 34167
" />
<path d="M47847 34336
L47791 34355
L47697 34355
L47660 34336
L47641 34317
L47622 34280
L47622 34242
L47641 34205
L47660 34186
L47697 34167
L47772 34148
L47810 34130
L47829 34111
L47847 34073
L47847 34036
L47829 33998
L47810 33980
L47772 33961
L47679 33961
L47622 33980
" />
<path d="M47510 33961
L47285 33961
" />
<path d="M47397 34355
L47397 33961
" />
<text x="47864" y="33412.9"
transform="scale(-1 1) translate(-95728.000000 0)"
textLength="1240.63" font-size="524.934" lengthAdjust="spacingAndGlyphs"
text-anchor="middle" opacity="0">DIO5</text>
<path d="M48454 33394
L48454 33000
L48360 33000
L48304 33019
L48267 33056
L48248 33094
L48229 33169
L48229 33225
L48248 33300
L48267 33337
L48304 33375
L48360 33394
L48454 33394
" />
<path d="M48060 33394
L48060 33000
" />
<path d="M47798 33000
L47723 33000
L47685 33019
L47648 33056
L47629 33131
L47629 33262
L47648 33337
L47685 33375
L47723 33394
L47798 33394
L47835 33375
L47873 33337
L47892 33262
L47892 33131
L47873 33056
L47835 33019
L47798 33000
" />
<path d="M47273 33000
L47460 33000
L47479 33187
L47460 33169
L47423 33150
L47329 33150
L47292 33169
L47273 33187
L47254 33225
L47254 33319
L47273 33356
L47292 33375
L47329 33394
L47423 33394
L47460 33375
L47479 33356
" />
</g>
<g style="fill:#000000; fill-opacity:0.0; 
stroke:#000000; stroke-width:59.0551; stroke-opacity:1; 
stroke-linecap:round; stroke-linejoin:round;">
<path d="M45921 32656
L46968 32656
" />
<path d="M45921 39703
L45921 32656
" />
<path d="M46968 39703
L46968 32656
" />
<path d="M45921 39703
L46968 39703
" />
<path d="M53926 32656
L54973 32656
" />
<path d="M53926 39703
L53926 32656
" />
<path d="M54973 39703
L54973 32656
" />
<path d="M53926 39703
L54973 39703
" />
<g >
</g>
<g >
</g>
<g >
</g>
<g >
</g>
<g >
</g>
<g >
</g>
<g >
</g>
<g >
</g>
<g >
</g>
</g> 
</svg>
