<?xml version="1.0" standalone="no"?>
 <!DOCTYPE svg PUBLIC "-//W3C//DTD SVG 1.1//EN" 
 "http://www.w3.org/Graphics/SVG/1.1/DTD/svg11.dtd"> 
<svg
  xmlns:svg="http://www.w3.org/2000/svg"
  xmlns="http://www.w3.org/2000/svg"
  xmlns:xlink="http://www.w3.org/1999/xlink"
  version="1.1"
  width="29.700220cm" height="21.000720cm" viewBox="0 0 116930 82680">
<title>SVG Picture created as project-F_Cu.svg date 2022/07/15 13:37:50 </title>
  <desc>Picture generated by PCBNEW </desc>
<g style="fill:#000000; fill-opacity:1;stroke:#000000; stroke-opacity:1;
stroke-linecap:round; stroke-linejoin:round;"
 transform="translate(0 0) scale(1 1)">
</g>
<g style="fill:#000000; fill-opacity:0.0; 
stroke:#000000; stroke-width:-0.000393701; stroke-opacity:1; 
stroke-linecap:round; stroke-linejoin:round;">
</g>
<g style="fill:#000000; fill-opacity:1.0; 
stroke:#000000; stroke-width:39.3701; stroke-opacity:1; 
stroke-linecap:round; stroke-linejoin:round;">
<rect x="59791.5" y="27923.4" width="13406" height="14259.1" rx="0" />
</g>
<g style="fill:#FFFFFF; fill-opacity:1.0; 
stroke:#FFFFFF; stroke-width:39.3701; stroke-opacity:1; 
stroke-linecap:round; stroke-linejoin:round;">
<g >
</g>
<g style="fill:#FFFFFF; fill-opacity:1.0; 
stroke:#FFFFFF; stroke-width:0; stroke-opacity:1; 
stroke-linecap:round; stroke-linejoin:round;">
<path style="fill:#FFFFFF; fill-opacity:1.0; 
stroke:#FFFFFF; stroke-width:0; stroke-opacity:1; 
stroke-linecap:round; stroke-linejoin:round;fill-rule:evenodd;"
d="M 69004.7,33672.5
69477.1,33672.5
69477.1,32688.3
69004.7,32688.3
Z" /> 
<path style="fill:#FFFFFF; fill-opacity:1.0; 
stroke:#FFFFFF; stroke-width:0; stroke-opacity:1; 
stroke-linecap:round; stroke-linejoin:round;fill-rule:evenodd;"
d="M 68217.3,33672.5
68689.7,33672.5
68689.7,32688.3
68217.3,32688.3
Z" /> 
<path style="fill:#FFFFFF; fill-opacity:1.0; 
stroke:#FFFFFF; stroke-width:0; stroke-opacity:1; 
stroke-linecap:round; stroke-linejoin:round;fill-rule:evenodd;"
d="M 67429.9,33672.5
67902.3,33672.5
67902.3,32688.3
67429.9,32688.3
Z" /> 
<path style="fill:#FFFFFF; fill-opacity:1.0; 
stroke:#FFFFFF; stroke-width:0; stroke-opacity:1; 
stroke-linecap:round; stroke-linejoin:round;fill-rule:evenodd;"
d="M 66642.5,33672.5
67114.9,33672.5
67114.9,32688.3
66642.5,32688.3
Z" /> 
<path style="fill:#FFFFFF; fill-opacity:1.0; 
stroke:#FFFFFF; stroke-width:0; stroke-opacity:1; 
stroke-linecap:round; stroke-linejoin:round;fill-rule:evenodd;"
d="M 65855.1,33672.5
66327.5,33672.5
66327.5,32688.3
65855.1,32688.3
Z" /> 
<path style="fill:#FFFFFF; fill-opacity:1.0; 
stroke:#FFFFFF; stroke-width:0; stroke-opacity:1; 
stroke-linecap:round; stroke-linejoin:round;fill-rule:evenodd;"
d="M 65067.7,33672.5
65540.1,33672.5
65540.1,32688.3
65067.7,32688.3
Z" /> 
<path style="fill:#FFFFFF; fill-opacity:1.0; 
stroke:#FFFFFF; stroke-width:0; stroke-opacity:1; 
stroke-linecap:round; stroke-linejoin:round;fill-rule:evenodd;"
d="M 64280.3,33672.5
64752.7,33672.5
64752.7,32688.3
64280.3,32688.3
Z" /> 
<path style="fill:#FFFFFF; fill-opacity:1.0; 
stroke:#FFFFFF; stroke-width:0; stroke-opacity:1; 
stroke-linecap:round; stroke-linejoin:round;fill-rule:evenodd;"
d="M 63492.9,33672.5
63965.3,33672.5
63965.3,32688.3
63492.9,32688.3
Z" /> 
<path style="fill:#FFFFFF; fill-opacity:1.0; 
stroke:#FFFFFF; stroke-width:0; stroke-opacity:1; 
stroke-linecap:round; stroke-linejoin:round;fill-rule:evenodd;"
d="M 63492.9,39971.7
63965.3,39971.7
63965.3,38987.5
63492.9,38987.5
Z" /> 
<path style="fill:#FFFFFF; fill-opacity:1.0; 
stroke:#FFFFFF; stroke-width:0; stroke-opacity:1; 
stroke-linecap:round; stroke-linejoin:round;fill-rule:evenodd;"
d="M 64280.3,39971.7
64752.7,39971.7
64752.7,38987.5
64280.3,38987.5
Z" /> 
<path style="fill:#FFFFFF; fill-opacity:1.0; 
stroke:#FFFFFF; stroke-width:0; stroke-opacity:1; 
stroke-linecap:round; stroke-linejoin:round;fill-rule:evenodd;"
d="M 65067.7,39971.7
65540.1,39971.7
65540.1,38987.5
65067.7,38987.5
Z" /> 
<path style="fill:#FFFFFF; fill-opacity:1.0; 
stroke:#FFFFFF; stroke-width:0; stroke-opacity:1; 
stroke-linecap:round; stroke-linejoin:round;fill-rule:evenodd;"
d="M 65855.1,39971.7
66327.5,39971.7
66327.5,38987.5
65855.1,38987.5
Z" /> 
<path style="fill:#FFFFFF; fill-opacity:1.0; 
stroke:#FFFFFF; stroke-width:0; stroke-opacity:1; 
stroke-linecap:round; stroke-linejoin:round;fill-rule:evenodd;"
d="M 66642.5,39971.7
67114.9,39971.7
67114.9,38987.5
66642.5,38987.5
Z" /> 
<path style="fill:#FFFFFF; fill-opacity:1.0; 
stroke:#FFFFFF; stroke-width:0; stroke-opacity:1; 
stroke-linecap:round; stroke-linejoin:round;fill-rule:evenodd;"
d="M 67429.9,39971.7
67902.3,39971.7
67902.3,38987.5
67429.9,38987.5
Z" /> 
<path style="fill:#FFFFFF; fill-opacity:1.0; 
stroke:#FFFFFF; stroke-width:0; stroke-opacity:1; 
stroke-linecap:round; stroke-linejoin:round;fill-rule:evenodd;"
d="M 68217.3,39971.7
68689.7,39971.7
68689.7,38987.5
68217.3,38987.5
Z" /> 
<path style="fill:#FFFFFF; fill-opacity:1.0; 
stroke:#FFFFFF; stroke-width:0; stroke-opacity:1; 
stroke-linecap:round; stroke-linejoin:round;fill-rule:evenodd;"
d="M 69004.7,39971.7
69477.1,39971.7
69477.1,38987.5
69004.7,38987.5
Z" /> 
</g>
<g >
</g>
<g style="fill:#FFFFFF; fill-opacity:1.0; 
stroke:#FFFFFF; stroke-width:0; stroke-opacity:1; 
stroke-linecap:round; stroke-linejoin:round;">
<circle cx="63730.7" cy="31934.6" r="196.85" /> 
</g>
<g style="fill:#FFFFFF; fill-opacity:1.0; 
stroke:#FFFFFF; stroke-width:39.3701; stroke-opacity:1; 
stroke-linecap:round; stroke-linejoin:round;">
</g>
<g style="fill:#FFFFFF; fill-opacity:1.0; 
stroke:#FFFFFF; stroke-width:0; stroke-opacity:1; 
stroke-linecap:round; stroke-linejoin:round;">
<path style="fill:#FFFFFF; fill-opacity:1.0; 
stroke:#FFFFFF; stroke-width:0; stroke-opacity:1; 
stroke-linecap:round; stroke-linejoin:round;fill-rule:evenodd;"
d="M 63533.9,31722
63533.9,32135.4
63927.6,32135.4
63927.6,31722
Z" /> 
<path style="fill:#FFFFFF; fill-opacity:1.0; 
stroke:#FFFFFF; stroke-width:0; stroke-opacity:1; 
stroke-linecap:round; stroke-linejoin:round;fill-rule:evenodd;"
d="M 62943.3,30903.1
62943.3,31769.2
63356.7,31769.2
63356.7,30903.1
Z" /> 
<path style="fill:#FFFFFF; fill-opacity:1.0; 
stroke:#FFFFFF; stroke-width:0; stroke-opacity:1; 
stroke-linecap:round; stroke-linejoin:round;fill-rule:evenodd;"
d="M 64104.7,30903.1
64104.7,31769.2
64518.1,31769.2
64518.1,30903.1
Z" /> 
<path style="fill:#FFFFFF; fill-opacity:1.0; 
stroke:#FFFFFF; stroke-width:0; stroke-opacity:1; 
stroke-linecap:round; stroke-linejoin:round;fill-rule:evenodd;"
d="M 62430.7,30170
62430.7,31770
63030.7,31770
63030.7,30170
Z" /> 
<path style="fill:#FFFFFF; fill-opacity:1.0; 
stroke:#FFFFFF; stroke-width:0; stroke-opacity:1; 
stroke-linecap:round; stroke-linejoin:round;fill-rule:evenodd;"
d="M 64430.7,30170
64430.7,31770
65030.7,31770
65030.7,30170
Z" /> 
</g>
<g >
</g>
<g style="fill:#FFFFFF; fill-opacity:1.0; 
stroke:#FFFFFF; stroke-width:0; stroke-opacity:1; 
stroke-linecap:round; stroke-linejoin:round;">
<path style="fill:#FFFFFF; fill-opacity:1.0; 
stroke:#FFFFFF; stroke-width:0; stroke-opacity:1; 
stroke-linecap:round; stroke-linejoin:round;fill-rule:evenodd;"
d="M 67205.5,30574.9
67196.2,30576.3
67187.1,30578.5
67178.2,30581.7
67169.7,30585.7
67161.6,30590.6
67154.1,30596.2
67147.1,30602.5
67140.8,30609.5
67135.1,30617.1
67130.3,30625.1
67126.3,30633.6
67123.1,30642.5
67120.8,30651.7
67119.4,30661
67119,30670.4
67119,31029.6
67119.4,31039
67120.8,31048.3
67123.1,31057.5
67126.3,31066.3
67130.3,31074.9
67135.1,31082.9
67140.8,31090.5
67147.1,31097.5
67154.1,31103.8
67161.6,31109.4
67169.7,31114.3
67178.2,31118.3
67187.1,31121.5
67196.2,31123.7
67205.5,31125.1
67214.9,31125.6
67406.9,31125.6
67416.3,31125.1
67425.6,31123.7
67434.7,31121.5
67443.6,31118.3
67452.1,31114.3
67460.2,31109.4
67467.7,31103.8
67474.7,31097.5
67481.1,31090.5
67486.7,31082.9
67491.5,31074.9
67495.5,31066.3
67498.7,31057.5
67501,31048.3
67502.4,31039
67502.8,31029.6
67502.8,30670.4
67502.4,30661
67501,30651.7
67498.7,30642.5
67495.5,30633.6
67491.5,30625.1
67486.7,30617.1
67481.1,30609.5
67474.7,30602.5
67467.7,30596.2
67460.2,30590.6
67452.1,30585.7
67443.6,30581.7
67434.7,30578.5
67425.6,30576.3
67416.3,30574.9
67406.9,30574.4
67214.9,30574.4
Z" /> 
<path style="fill:#FFFFFF; fill-opacity:1.0; 
stroke:#FFFFFF; stroke-width:0; stroke-opacity:1; 
stroke-linecap:round; stroke-linejoin:round;fill-rule:evenodd;"
d="M 67943.7,30574.9
67934.4,30576.3
67925.3,30578.5
67916.4,30581.7
67907.9,30585.7
67899.8,30590.6
67892.3,30596.2
67885.3,30602.5
67878.9,30609.5
67873.3,30617.1
67868.5,30625.1
67864.5,30633.6
67861.3,30642.5
67859,30651.7
67857.6,30661
67857.2,30670.4
67857.2,31029.6
67857.6,31039
67859,31048.3
67861.3,31057.5
67864.5,31066.3
67868.5,31074.9
67873.3,31082.9
67878.9,31090.5
67885.3,31097.5
67892.3,31103.8
67899.8,31109.4
67907.9,31114.3
67916.4,31118.3
67925.3,31121.5
67934.4,31123.7
67943.7,31125.1
67953.1,31125.6
68145.1,31125.6
68154.5,31125.1
68163.8,31123.7
68172.9,31121.5
68181.8,31118.3
68190.3,31114.3
68198.4,31109.4
68205.9,31103.8
68212.9,31097.5
68219.2,31090.5
68224.9,31082.9
68229.7,31074.9
68233.7,31066.3
68236.9,31057.5
68239.2,31048.3
68240.6,31039
68241,31029.6
68241,30670.4
68240.6,30661
68239.2,30651.7
68236.9,30642.5
68233.7,30633.6
68229.7,30625.1
68224.9,30617.1
68219.2,30609.5
68212.9,30602.5
68205.9,30596.2
68198.4,30590.6
68190.3,30585.7
68181.8,30581.7
68172.9,30578.5
68163.8,30576.3
68154.5,30574.9
68145.1,30574.4
67953.1,30574.4
Z" /> 
</g>
<g >
</g>
<g style="fill:#FFFFFF; fill-opacity:1.0; 
stroke:#FFFFFF; stroke-width:0; stroke-opacity:1; 
stroke-linecap:round; stroke-linejoin:round;">
<path style="fill:#FFFFFF; fill-opacity:1.0; 
stroke:#FFFFFF; stroke-width:0; stroke-opacity:1; 
stroke-linecap:round; stroke-linejoin:round;fill-rule:evenodd;"
d="M 67943.7,31374.9
67934.4,31376.3
67925.3,31378.5
67916.4,31381.7
67907.9,31385.7
67899.8,31390.6
67892.3,31396.2
67885.3,31402.5
67878.9,31409.5
67873.3,31417.1
67868.5,31425.1
67864.5,31433.6
67861.3,31442.5
67859,31451.7
67857.6,31461
67857.2,31470.4
67857.2,31829.6
67857.6,31839
67859,31848.3
67861.3,31857.5
67864.5,31866.3
67868.5,31874.9
67873.3,31882.9
67878.9,31890.5
67885.3,31897.5
67892.3,31903.8
67899.8,31909.4
67907.9,31914.3
67916.4,31918.3
67925.3,31921.5
67934.4,31923.7
67943.7,31925.1
67953.1,31925.6
68145.1,31925.6
68154.5,31925.1
68163.8,31923.7
68172.9,31921.5
68181.8,31918.3
68190.3,31914.3
68198.4,31909.4
68205.9,31903.8
68212.9,31897.5
68219.2,31890.5
68224.9,31882.9
68229.7,31874.9
68233.7,31866.3
68236.9,31857.5
68239.2,31848.3
68240.6,31839
68241,31829.6
68241,31470.4
68240.6,31461
68239.2,31451.7
68236.9,31442.5
68233.7,31433.6
68229.7,31425.1
68224.9,31417.1
68219.2,31409.5
68212.9,31402.5
68205.9,31396.2
68198.4,31390.6
68190.3,31385.7
68181.8,31381.7
68172.9,31378.5
68163.8,31376.3
68154.5,31374.9
68145.1,31374.4
67953.1,31374.4
Z" /> 
<path style="fill:#FFFFFF; fill-opacity:1.0; 
stroke:#FFFFFF; stroke-width:0; stroke-opacity:1; 
stroke-linecap:round; stroke-linejoin:round;fill-rule:evenodd;"
d="M 67205.5,31374.9
67196.2,31376.3
67187.1,31378.5
67178.2,31381.7
67169.7,31385.7
67161.6,31390.6
67154.1,31396.2
67147.1,31402.5
67140.8,31409.5
67135.1,31417.1
67130.3,31425.1
67126.3,31433.6
67123.1,31442.5
67120.8,31451.7
67119.4,31461
67119,31470.4
67119,31829.6
67119.4,31839
67120.8,31848.3
67123.1,31857.5
67126.3,31866.3
67130.3,31874.9
67135.1,31882.9
67140.8,31890.5
67147.1,31897.5
67154.1,31903.8
67161.6,31909.4
67169.7,31914.3
67178.2,31918.3
67187.1,31921.5
67196.2,31923.7
67205.5,31925.1
67214.9,31925.6
67406.9,31925.6
67416.3,31925.1
67425.6,31923.7
67434.7,31921.5
67443.6,31918.3
67452.1,31914.3
67460.2,31909.4
67467.7,31903.8
67474.7,31897.5
67481.1,31890.5
67486.7,31882.9
67491.5,31874.9
67495.5,31866.3
67498.7,31857.5
67501,31848.3
67502.4,31839
67502.8,31829.6
67502.8,31470.4
67502.4,31461
67501,31451.7
67498.7,31442.5
67495.5,31433.6
67491.5,31425.1
67486.7,31417.1
67481.1,31409.5
67474.7,31402.5
67467.7,31396.2
67460.2,31390.6
67452.1,31385.7
67443.6,31381.7
67434.7,31378.5
67425.6,31376.3
67416.3,31374.9
67406.9,31374.4
67214.9,31374.4
Z" /> 
</g>
<g >
</g>
<g style="fill:#FFFFFF; fill-opacity:1.0; 
stroke:#FFFFFF; stroke-width:0; stroke-opacity:1; 
stroke-linecap:round; stroke-linejoin:round;">
<path style="fill:#FFFFFF; fill-opacity:1.0; 
stroke:#FFFFFF; stroke-width:0; stroke-opacity:1; 
stroke-linecap:round; stroke-linejoin:round;fill-rule:evenodd;"
d="M 68593.5,30574.9
68584.2,30576.3
68575.1,30578.5
68566.2,30581.7
68557.7,30585.7
68549.6,30590.6
68542.1,30596.2
68535.1,30602.5
68528.8,30609.5
68523.1,30617.1
68518.3,30625.1
68514.3,30633.6
68511.1,30642.5
68508.8,30651.7
68507.4,30661
68507,30670.4
68507,31029.6
68507.4,31039
68508.8,31048.3
68511.1,31057.5
68514.3,31066.3
68518.3,31074.9
68523.1,31082.9
68528.8,31090.5
68535.1,31097.5
68542.1,31103.8
68549.6,31109.4
68557.7,31114.3
68566.2,31118.3
68575.1,31121.5
68584.2,31123.7
68593.5,31125.1
68602.9,31125.6
68794.9,31125.6
68804.3,31125.1
68813.6,31123.7
68822.7,31121.5
68831.6,31118.3
68840.1,31114.3
68848.2,31109.4
68855.7,31103.8
68862.7,31097.5
68869.1,31090.5
68874.7,31082.9
68879.5,31074.9
68883.5,31066.3
68886.7,31057.5
68889,31048.3
68890.4,31039
68890.8,31029.6
68890.8,30670.4
68890.4,30661
68889,30651.7
68886.7,30642.5
68883.5,30633.6
68879.5,30625.1
68874.7,30617.1
68869.1,30609.5
68862.7,30602.5
68855.7,30596.2
68848.2,30590.6
68840.1,30585.7
68831.6,30581.7
68822.7,30578.5
68813.6,30576.3
68804.3,30574.9
68794.9,30574.4
68602.9,30574.4
Z" /> 
<path style="fill:#FFFFFF; fill-opacity:1.0; 
stroke:#FFFFFF; stroke-width:0; stroke-opacity:1; 
stroke-linecap:round; stroke-linejoin:round;fill-rule:evenodd;"
d="M 69331.7,30574.9
69322.4,30576.3
69313.3,30578.5
69304.4,30581.7
69295.9,30585.7
69287.8,30590.6
69280.3,30596.2
69273.3,30602.5
69266.9,30609.5
69261.3,30617.1
69256.5,30625.1
69252.5,30633.6
69249.3,30642.5
69247,30651.7
69245.6,30661
69245.2,30670.4
69245.2,31029.6
69245.6,31039
69247,31048.3
69249.3,31057.5
69252.5,31066.3
69256.5,31074.9
69261.3,31082.9
69266.9,31090.5
69273.3,31097.5
69280.3,31103.8
69287.8,31109.4
69295.9,31114.3
69304.4,31118.3
69313.3,31121.5
69322.4,31123.7
69331.7,31125.1
69341.1,31125.6
69533.1,31125.6
69542.5,31125.1
69551.8,31123.7
69560.9,31121.5
69569.8,31118.3
69578.3,31114.3
69586.4,31109.4
69593.9,31103.8
69600.9,31097.5
69607.2,31090.5
69612.9,31082.9
69617.7,31074.9
69621.7,31066.3
69624.9,31057.5
69627.2,31048.3
69628.6,31039
69629,31029.6
69629,30670.4
69628.6,30661
69627.2,30651.7
69624.9,30642.5
69621.7,30633.6
69617.7,30625.1
69612.9,30617.1
69607.2,30609.5
69600.9,30602.5
69593.9,30596.2
69586.4,30590.6
69578.3,30585.7
69569.8,30581.7
69560.9,30578.5
69551.8,30576.3
69542.5,30574.9
69533.1,30574.4
69341.1,30574.4
Z" /> 
</g>
<g >
</g>
<g style="fill:#FFFFFF; fill-opacity:1.0; 
stroke:#FFFFFF; stroke-width:0; stroke-opacity:1; 
stroke-linecap:round; stroke-linejoin:round;">
<path style="fill:#FFFFFF; fill-opacity:1.0; 
stroke:#FFFFFF; stroke-width:0; stroke-opacity:1; 
stroke-linecap:round; stroke-linejoin:round;fill-rule:evenodd;"
d="M 69331.7,31374.9
69322.4,31376.3
69313.3,31378.5
69304.4,31381.7
69295.9,31385.7
69287.8,31390.6
69280.3,31396.2
69273.3,31402.5
69266.9,31409.5
69261.3,31417.1
69256.5,31425.1
69252.5,31433.6
69249.3,31442.5
69247,31451.7
69245.6,31461
69245.2,31470.4
69245.2,31829.6
69245.6,31839
69247,31848.3
69249.3,31857.5
69252.5,31866.3
69256.5,31874.9
69261.3,31882.9
69266.9,31890.5
69273.3,31897.5
69280.3,31903.8
69287.8,31909.4
69295.9,31914.3
69304.4,31918.3
69313.3,31921.5
69322.4,31923.7
69331.7,31925.1
69341.1,31925.6
69533.1,31925.6
69542.5,31925.1
69551.8,31923.7
69560.9,31921.5
69569.8,31918.3
69578.3,31914.3
69586.4,31909.4
69593.9,31903.8
69600.9,31897.5
69607.2,31890.5
69612.9,31882.9
69617.7,31874.9
69621.7,31866.3
69624.9,31857.5
69627.2,31848.3
69628.6,31839
69629,31829.6
69629,31470.4
69628.6,31461
69627.2,31451.7
69624.9,31442.5
69621.7,31433.6
69617.7,31425.1
69612.9,31417.1
69607.2,31409.5
69600.9,31402.5
69593.9,31396.2
69586.4,31390.6
69578.3,31385.7
69569.8,31381.7
69560.9,31378.5
69551.8,31376.3
69542.5,31374.9
69533.1,31374.4
69341.1,31374.4
Z" /> 
<path style="fill:#FFFFFF; fill-opacity:1.0; 
stroke:#FFFFFF; stroke-width:0; stroke-opacity:1; 
stroke-linecap:round; stroke-linejoin:round;fill-rule:evenodd;"
d="M 68593.5,31374.9
68584.2,31376.3
68575.1,31378.5
68566.2,31381.7
68557.7,31385.7
68549.6,31390.6
68542.1,31396.2
68535.1,31402.5
68528.8,31409.5
68523.1,31417.1
68518.3,31425.1
68514.3,31433.6
68511.1,31442.5
68508.8,31451.7
68507.4,31461
68507,31470.4
68507,31829.6
68507.4,31839
68508.8,31848.3
68511.1,31857.5
68514.3,31866.3
68518.3,31874.9
68523.1,31882.9
68528.8,31890.5
68535.1,31897.5
68542.1,31903.8
68549.6,31909.4
68557.7,31914.3
68566.2,31918.3
68575.1,31921.5
68584.2,31923.7
68593.5,31925.1
68602.9,31925.6
68794.9,31925.6
68804.3,31925.1
68813.6,31923.7
68822.7,31921.5
68831.6,31918.3
68840.1,31914.3
68848.2,31909.4
68855.7,31903.8
68862.7,31897.5
68869.1,31890.5
68874.7,31882.9
68879.5,31874.9
68883.5,31866.3
68886.7,31857.5
68889,31848.3
68890.4,31839
68890.8,31829.6
68890.8,31470.4
68890.4,31461
68889,31451.7
68886.7,31442.5
68883.5,31433.6
68879.5,31425.1
68874.7,31417.1
68869.1,31409.5
68862.7,31402.5
68855.7,31396.2
68848.2,31390.6
68840.1,31385.7
68831.6,31381.7
68822.7,31378.5
68813.6,31376.3
68804.3,31374.9
68794.9,31374.4
68602.9,31374.4
Z" /> 
</g>
<g >
</g>
<g style="fill:#FFFFFF; fill-opacity:1.0; 
stroke:#FFFFFF; stroke-width:0; stroke-opacity:1; 
stroke-linecap:round; stroke-linejoin:round;">
<circle cx="70485" cy="33180" r="334.646" /> 
<circle cx="70485" cy="34180" r="334.646" /> 
<circle cx="70485" cy="35180" r="334.646" /> 
<circle cx="70485" cy="36180" r="334.646" /> 
<circle cx="70485" cy="37180" r="334.646" /> 
<circle cx="70485" cy="38180" r="334.646" /> 
<circle cx="70485" cy="39180" r="334.646" /> 
</g>
<g style="fill:#FFFFFF; fill-opacity:1.0; 
stroke:#FFFFFF; stroke-width:39.3701; stroke-opacity:1; 
stroke-linecap:round; stroke-linejoin:round;">
</g>
<g >
</g>
<g style="fill:#FFFFFF; fill-opacity:1.0; 
stroke:#FFFFFF; stroke-width:39.3701; stroke-opacity:1; 
stroke-linecap:round; stroke-linejoin:round;">
</g>
<g style="fill:#FFFFFF; fill-opacity:1.0; 
stroke:#FFFFFF; stroke-width:0; stroke-opacity:1; 
stroke-linecap:round; stroke-linejoin:round;">
<circle cx="62480" cy="33180" r="334.646" /> 
<circle cx="62480" cy="34180" r="334.646" /> 
<circle cx="62480" cy="35180" r="334.646" /> 
<circle cx="62480" cy="36180" r="334.646" /> 
<circle cx="62480" cy="37180" r="334.646" /> 
<circle cx="62480" cy="38180" r="334.646" /> 
<circle cx="62480" cy="39180" r="334.646" /> 
</g>
<g style="fill:#FFFFFF; fill-opacity:1.0; 
stroke:#FFFFFF; stroke-width:39.3701; stroke-opacity:1; 
stroke-linecap:round; stroke-linejoin:round;">
</g>
<g >
</g>
<g style="fill:#FFFFFF; fill-opacity:1.0; 
stroke:#FFFFFF; stroke-width:39.3701; stroke-opacity:1; 
stroke-linecap:round; stroke-linejoin:round;">
</g>
<g style="fill:#FFFFFF; fill-opacity:1.0; 
stroke:#FFFFFF; stroke-width:0; stroke-opacity:1; 
stroke-linecap:round; stroke-linejoin:round;">
<circle cx="70812" cy="32203" r="118.11" /> 
</g>
<g style="fill:#FFFFFF; fill-opacity:1.0; 
stroke:#FFFFFF; stroke-width:39.3701; stroke-opacity:1; 
stroke-linecap:round; stroke-linejoin:round;">
</g>
<g style="fill:#FFFFFF; fill-opacity:1.0; 
stroke:#FFFFFF; stroke-width:0; stroke-opacity:1; 
stroke-linecap:round; stroke-linejoin:round;">
<circle cx="65139.6" cy="32049" r="118.11" /> 
</g>
<g style="fill:#FFFFFF; fill-opacity:1.0; 
stroke:#FFFFFF; stroke-width:39.3701; stroke-opacity:1; 
stroke-linecap:round; stroke-linejoin:round;">
</g>
<g style="fill:#FFFFFF; fill-opacity:1.0; 
stroke:#FFFFFF; stroke-width:0; stroke-opacity:1; 
stroke-linecap:round; stroke-linejoin:round;">
<circle cx="64745.9" cy="32049" r="118.11" /> 
</g>
<g style="fill:#FFFFFF; fill-opacity:1.0; 
stroke:#FFFFFF; stroke-width:39.3701; stroke-opacity:1; 
stroke-linecap:round; stroke-linejoin:round;">
</g>
<g style="fill:#FFFFFF; fill-opacity:1.0; 
stroke:#FFFFFF; stroke-width:0; stroke-opacity:1; 
stroke-linecap:round; stroke-linejoin:round;">
<circle cx="64352.2" cy="32049" r="118.11" /> 
</g>
<g style="fill:#FFFFFF; fill-opacity:1.0; 
stroke:#FFFFFF; stroke-width:39.3701; stroke-opacity:1; 
stroke-linecap:round; stroke-linejoin:round;">
</g>
<g style="fill:#FFFFFF; fill-opacity:1.0; 
stroke:#FFFFFF; stroke-width:0; stroke-opacity:1; 
stroke-linecap:round; stroke-linejoin:round;">
<circle cx="63129.4" cy="32049" r="118.11" /> 
</g>
<g style="fill:#FFFFFF; fill-opacity:1.0; 
stroke:#FFFFFF; stroke-width:39.3701; stroke-opacity:1; 
stroke-linecap:round; stroke-linejoin:round;">
</g>
<g style="fill:#FFFFFF; fill-opacity:1.0; 
stroke:#FFFFFF; stroke-width:0; stroke-opacity:1; 
stroke-linecap:round; stroke-linejoin:round;">
<circle cx="62735.7" cy="32049" r="118.11" /> 
</g>
<g style="fill:#FFFFFF; fill-opacity:1.0; 
stroke:#FFFFFF; stroke-width:39.3701; stroke-opacity:1; 
stroke-linecap:round; stroke-linejoin:round;">
</g>
<g style="fill:#FFFFFF; fill-opacity:1.0; 
stroke:#FFFFFF; stroke-width:0; stroke-opacity:1; 
stroke-linecap:round; stroke-linejoin:round;">
<circle cx="62342" cy="32049" r="118.11" /> 
</g>
<g style="fill:#FFFFFF; fill-opacity:1.0; 
stroke:#FFFFFF; stroke-width:39.3701; stroke-opacity:1; 
stroke-linecap:round; stroke-linejoin:round;">
</g>
<g style="fill:#FFFFFF; fill-opacity:1.0; 
stroke:#FFFFFF; stroke-width:0; stroke-opacity:1; 
stroke-linecap:round; stroke-linejoin:round;">
<circle cx="65139.6" cy="32364" r="118.11" /> 
</g>
<g style="fill:#FFFFFF; fill-opacity:1.0; 
stroke:#FFFFFF; stroke-width:39.3701; stroke-opacity:1; 
stroke-linecap:round; stroke-linejoin:round;">
</g>
<g style="fill:#FFFFFF; fill-opacity:1.0; 
stroke:#FFFFFF; stroke-width:0; stroke-opacity:1; 
stroke-linecap:round; stroke-linejoin:round;">
<circle cx="64745.9" cy="32364" r="118.11" /> 
</g>
<g style="fill:#FFFFFF; fill-opacity:1.0; 
stroke:#FFFFFF; stroke-width:39.3701; stroke-opacity:1; 
stroke-linecap:round; stroke-linejoin:round;">
</g>
<g style="fill:#FFFFFF; fill-opacity:1.0; 
stroke:#FFFFFF; stroke-width:0; stroke-opacity:1; 
stroke-linecap:round; stroke-linejoin:round;">
<circle cx="64352.2" cy="32364" r="118.11" /> 
</g>
<g style="fill:#FFFFFF; fill-opacity:1.0; 
stroke:#FFFFFF; stroke-width:39.3701; stroke-opacity:1; 
stroke-linecap:round; stroke-linejoin:round;">
</g>
<g style="fill:#FFFFFF; fill-opacity:1.0; 
stroke:#FFFFFF; stroke-width:0; stroke-opacity:1; 
stroke-linecap:round; stroke-linejoin:round;">
<circle cx="63129.4" cy="32364" r="118.11" /> 
</g>
<g style="fill:#FFFFFF; fill-opacity:1.0; 
stroke:#FFFFFF; stroke-width:39.3701; stroke-opacity:1; 
stroke-linecap:round; stroke-linejoin:round;">
</g>
<g style="fill:#FFFFFF; fill-opacity:1.0; 
stroke:#FFFFFF; stroke-width:0; stroke-opacity:1; 
stroke-linecap:round; stroke-linejoin:round;">
<circle cx="62735.7" cy="32364" r="118.11" /> 
</g>
<g style="fill:#FFFFFF; fill-opacity:1.0; 
stroke:#FFFFFF; stroke-width:39.3701; stroke-opacity:1; 
stroke-linecap:round; stroke-linejoin:round;">
</g>
<g style="fill:#FFFFFF; fill-opacity:1.0; 
stroke:#FFFFFF; stroke-width:0; stroke-opacity:1; 
stroke-linecap:round; stroke-linejoin:round;">
<circle cx="62342" cy="32364" r="118.11" /> 
</g>
<g style="fill:#FFFFFF; fill-opacity:1.0; 
stroke:#FFFFFF; stroke-width:39.3701; stroke-opacity:1; 
stroke-linecap:round; stroke-linejoin:round;">
</g>
<g style="fill:#FFFFFF; fill-opacity:1.0; 
stroke:#FFFFFF; stroke-width:0; stroke-opacity:1; 
stroke-linecap:round; stroke-linejoin:round;">
<circle cx="63733" cy="31932" r="157.48" /> 
</g>
<g style="fill:#FFFFFF; fill-opacity:1.0; 
stroke:#FFFFFF; stroke-width:39.3701; stroke-opacity:1; 
stroke-linecap:round; stroke-linejoin:round;">
</g>
<g >
</g>
<g style="fill:#FFFFFF; fill-opacity:1.0; 
stroke:#FFFFFF; stroke-width:39.3701; stroke-opacity:1; 
stroke-linecap:round; stroke-linejoin:round;">
</g>
<g style="fill:#FFFFFF; fill-opacity:1.0; 
stroke:#FFFFFF; stroke-width:157.48; stroke-opacity:1; 
stroke-linecap:round; stroke-linejoin:round;">
</g>
<g style="fill:#FFFFFF; fill-opacity:0.0; 
stroke:#FFFFFF; stroke-width:157.48; stroke-opacity:1; 
stroke-linecap:round; stroke-linejoin:round;">
<path d="M63729 39479
L63720 39488
" />
<path d="M63720 39488
L63720 39492
" />
<path d="M62734 30860
L63100 31226
" />
<path d="M64734 30860
L64367 31226
" />
<path d="M68698 30671
L68698 30611
" />
<path d="M62953 36180
L62480 36180
" />
<path d="M64260 36180
L62953 36180
" />
<path d="M66878 33561
L64260 36180
" />
<path d="M66878 33180
L66878 33561
" />
<path d="M68698 31650
L68049 31650
" />
<path d="M66878 31282
L67310 30850
" />
<path d="M66878 33180
L66878 31282
" />
<path d="M68049 31624
L68049 31650
" />
<path d="M67310 30886
L68049 31624
" />
<path d="M67310 30850
L67310 30886
" />
<path d="M68453 39016
L68453 39479
" />
<path d="M69290 38180
L68453 39016
" />
<path d="M70485 38180
L69290 38180
" />
<path d="M67666 39023
L67666 39479
" />
<path d="M69508 37182
L67666 39023
" />
<path d="M70483 37182
L69508 37182
" />
<path d="M70485 37180
L70483 37182
" />
<path d="M66878 39025
L66878 39479
" />
<path d="M69718 36186
L66878 39025
" />
<path d="M70485 36180
L70479 36186
" />
<path d="M70479 36186
L69718 36186
" />
<path d="M70819 34845
L70485 35180
" />
<path d="M70947 34717
L70819 34845
" />
</g>
<g style="fill:#FFFFFF; fill-opacity:0.0; 
stroke:#FFFFFF; stroke-width:98.4252; stroke-opacity:1; 
stroke-linecap:round; stroke-linejoin:round;">
<path d="M70947 32787
L70947 34717
" />
</g>
<g style="fill:#FFFFFF; fill-opacity:0.0; 
stroke:#FFFFFF; stroke-width:157.48; stroke-opacity:1; 
stroke-linecap:round; stroke-linejoin:round;">
<path d="M66091 38998
L66091 39479
" />
<path d="M69922 35168
L66091 38998
" />
<path d="M70473 35168
L69922 35168
" />
<path d="M70485 35180
L70473 35168
" />
<path d="M67310 31650
L67960 32300
" />
<path d="M67960 32300
L70460 32300
" />
<path d="M70947 32787
L70460 32300
" />
<path d="M65303 38920
L65303 39479
" />
<path d="M70485 34180
L70044 34180
" />
<path d="M70044 34180
L65303 38920
" />
<path d="M64516 39282
L64516 39479
" />
<path d="M64516 39013
L64516 39282
" />
<path d="M70350 33180
L64516 39013
" />
<path d="M70485 33180
L70350 33180
" />
<path d="M62480 33180
L62480 33180
" />
<path d="M63729 33180
L62480 33180
" />
</g>
<g style="fill:#FFFFFF; fill-opacity:1.0; 
stroke:#FFFFFF; stroke-width:0; stroke-opacity:1; 
stroke-linecap:round; stroke-linejoin:round;">
<circle cx="63734" cy="31818.7" r="78.7402" /> 
</g>
<g style="fill:#FFFFFF; fill-opacity:1.0; 
stroke:#FFFFFF; stroke-width:157.48; stroke-opacity:1; 
stroke-linecap:round; stroke-linejoin:round;">
</g>
<g style="fill:#FFFFFF; fill-opacity:0.0; 
stroke:#FFFFFF; stroke-width:157.48; stroke-opacity:1; 
stroke-linecap:round; stroke-linejoin:round;">
<path d="M63729 33180
L63729 31935
" />
<path d="M63729 31935
L63733 31931
" />
<path d="M62560 34180
L62480 34180
" />
<path d="M63050 34670
L62560 34180
" />
<path d="M64430 34670
L63050 34670
" />
<path d="M65303 33796
L64430 34670
" />
<path d="M65303 33180
L65303 33796
" />
<path d="M62953 35180
L62480 35180
" />
<path d="M62963 35170
L62953 35180
" />
<path d="M64530 35170
L62963 35170
" />
<path d="M66091 33608
L64530 35170
" />
<path d="M66091 33180
L66091 33608
" />
<path d="M62953 37180
L62480 37180
" />
<path d="M64070 37180
L62953 37180
" />
<path d="M67666 33583
L64070 37180
" />
<path d="M67666 33180
L67666 33583
" />
<path d="M62953 38180
L62480 38180
" />
<path d="M63900 38180
L62953 38180
" />
<path d="M68453 33626
L63900 38180
" />
<path d="M68453 33180
L68453 33626
" />
<path d="M62814 38845
L62480 39180
" />
<path d="M62991 38669
L62814 38845
" />
<path d="M64131 38669
L62991 38669
" />
<path d="M69240 33559
L64131 38669
" />
<path d="M69240 33180
L69240 33559
" />
<path d="M69437 30850
L69437 31650
" />
</g>
<g >
</g>
<g style="fill:#FFFFFF; fill-opacity:0.0; 
stroke:#FFFFFF; stroke-width:157.48; stroke-opacity:1; 
stroke-linecap:round; stroke-linejoin:round;">
<g >
</g>
<g style="fill:#FFFFFF; fill-opacity:1.0; 
stroke:#FFFFFF; stroke-width:100; stroke-opacity:1; 
stroke-linecap:round; stroke-linejoin:round;">
<path style="fill:#FFFFFF; fill-opacity:1.0; 
stroke:#FFFFFF; stroke-width:100; stroke-opacity:1; 
stroke-linecap:round; stroke-linejoin:round;fill-rule:evenodd;"
d="M 69162.9,38772
69190.9,38800
69190.9,39429.6
69183,39429.6
69183,39529.6
69190.9,39529.6
69190.9,39537.5
69290.9,39537.5
69290.9,39529.6
69664.6,39529.6
69727.1,39592.1
69728.2,39920.3
70471.8,39920.3
70570.3,39910.7
70652.3,39885.9
70728,39845.7
70794.3,39791.5
70849,39725.5
70889.7,39650.1
70909.9,39584.9
70819.2,39584.9
70788.6,39682.9
70684.7,39732.5
70573,39760.8
70458,39766.9
70344,39750.3
70235.5,39711.9
70181.4,39682.9
70150.8,39584.9
70485,39250.7
70819.2,39584.9
70909.9,39584.9
70915.1,39568.3
70921.8,39504.2
70889.9,39514.2
70555.7,39180
70414.3,39180
70080.1,39514.2
69982.1,39483.6
69932.5,39379.7
69904.2,39268
69898.1,39153
69914.7,39039
69933,38987.5
69728.3,38987.5
69727.1,39367.1
69664.6,39429.6
69290.9,39429.6
69290.9,38800
69353.4,38737.5
69477.1,38736.3
69526.1,38741.1
69573.3,38755.4
69616.7,38778.6
69654.8,38809.8
69686,38847.9
69709.2,38891.3
69723.5,38938.5
69728.3,38987.5
69933,38987.5
69953.1,38930.5
69982.1,38876.4
70080.1,38845.8
70414.3,39180
70555.7,39180
70889.9,38845.8
70925.3,38856.9
70925.3,38566.5
70857.7,38634.1
70789.4,38679.7
70819.2,38775.1
70485,39109.3
70150.8,38775.1
70180.6,38679.7
70112.3,38634.1
70030.9,38552.7
70001.5,38508.7
69426.2,38508.7
Z" /> 
<path style="fill:#FFFFFF; fill-opacity:1.0; 
stroke:#FFFFFF; stroke-width:100; stroke-opacity:1; 
stroke-linecap:round; stroke-linejoin:round;fill-rule:evenodd;"
d="M 63054.3,39070.6
63064.6,39122.4
63064.6,39237.6
63042.2,39350.5
62998.1,39456.9
62934.1,39552.7
62852.7,39634.1
62756.9,39698.1
62650.5,39742.2
62537.6,39764.6
62422.4,39764.6
62309.5,39742.2
62203.1,39698.1
62107.3,39634.1
62082.7,39609.5
62094.1,39647.3
62134.3,39723
62188.5,39789.3
62254.5,39844
62329.9,39884.7
62411.7,39910.1
62509.3,39920.3
63241.8,39920.3
63242.9,39592.1
63305.4,39529.6
63679.1,39529.6
63679.1,39537.5
63779.1,39537.5
63779.1,39529.6
63787,39529.6
63787,39429.6
63779.1,39429.6
63779.1,39421.7
63679.1,39421.7
63679.1,39429.6
63305.4,39429.6
63242.9,39367.1
63241.7,38997.7
63127.2,38997.7
Z" /> 
<path style="fill:#FFFFFF; fill-opacity:1.0; 
stroke:#FFFFFF; stroke-width:100; stroke-opacity:1; 
stroke-linecap:round; stroke-linejoin:round;fill-rule:evenodd;"
d="M 65280.7,30857.5
65218.2,30920
64780.7,30920
64780.7,30912.1
64769.3,30912.1
64768.1,31223.6
64705.6,31286.1
64680.7,31286.1
64680.7,31386.1
64705.6,31386.1
64768.1,31448.6
64769.3,31769.2
64764.5,31818.2
64750.2,31865.3
64727,31908.8
64695.7,31946.8
64671.3,31966.9
64618.2,32020
64430.7,32021.2
64381.7,32016.4
64334.6,32002.1
64291.1,31978.9
64261.4,31954.5
64261.4,31956.7
64198.9,32019.2
64178.8,32019.5
64178.8,32135.4
64173.9,32184.4
64159.6,32231.5
64136.4,32274.9
64105.2,32313
64067.1,32344.2
64057.8,32349.2
64057.8,32455.1
64061.4,32456.2
64104.9,32479.4
64122.8,32494.1
64140.7,32479.4
64184.1,32456.2
64231.3,32441.9
64280.3,32437.1
64404,32438.3
64466.5,32500.8
64466.5,33130.4
64458.6,33130.4
64458.6,33230.4
64466.5,33230.4
64466.5,33860
64404,33922.5
64280.3,33923.7
64231.3,33918.9
64184.1,33904.6
64140.7,33881.4
64122.8,33866.7
64104.9,33881.4
64061.4,33904.6
64014.3,33918.9
63965.3,33923.7
63492.9,33923.7
63443.9,33918.9
63396.7,33904.6
63353.3,33881.4
63315.2,33850.2
63284,33812.1
63260.8,33768.7
63246.5,33721.5
63241.7,33672.5
63241.7,33509.1
62963.2,33509.1
62934.1,33552.7
62852.7,33634.1
62784,33680
62852.7,33725.9
62934.1,33807.3
62998.1,33903.1
63042.2,34009.5
63064.6,34122.4
63064.6,34219.7
63186.2,34341.3
64293.8,34341.3
64711.8,33923.3
64629,33922.5
64566.5,33860
64566.5,33230.4
64574.4,33230.4
64574.4,33130.4
64566.5,33130.4
64566.5,32500.8
64629,32438.3
64752.7,32437.1
64801.7,32441.9
64848.9,32456.2
64892.3,32479.4
64910.2,32494.1
64928.1,32479.4
64971.5,32456.2
65018.7,32441.9
65067.7,32437.1
65540.1,32437.1
65589.1,32441.9
65636.3,32456.2
65679.7,32479.4
65697.6,32494.1
65715.5,32479.4
65758.9,32456.2
65806.1,32441.9
65855.1,32437.1
66327.5,32437.1
66376.5,32441.9
66423.7,32456.2
66467.1,32479.4
66485,32494.1
66502.9,32479.4
66546.3,32456.2
66550,32455.1
66550,31770
65281.9,31770
65277.1,31819
65262.8,31866.1
65239.6,31909.6
65208.3,31947.6
65170.3,31978.9
65126.8,32002.1
65079.7,32016.4
65030.7,32021.2
64843.2,32020
64780.7,31957.5
64780.7,31020
65218.2,31020
65280.7,31082.5
65281.9,31770
66550,31770
66550,31298.4
66548.4,31282.2
66554.7,31217.8
66555,31216.7
66573.5,31155.8
66604,31098.7
66645.1,31048.6
66657.7,31038.3
66867.8,30828.2
66867.8,30670.4
66874.4,30602.6
66894.2,30537.5
66926.3,30477.5
66969.5,30424.9
67022.1,30381.7
67082.1,30349.6
67147.2,30329.9
67214.9,30323.2
67406.9,30323.2
67474.6,30329.9
67539.7,30349.6
67599.7,30381.7
67652.4,30424.9
67654.4,30427.4
67679.5,30396.8
67717.6,30365.5
67761,30342.3
67808.2,30328
67857.2,30323.2
67936.6,30324.4
67999.1,30386.9
67999.1,30800
67991.2,30800
67991.2,30900
67999.1,30900
67999.1,30907.9
68099.1,30907.9
68099.1,30900
68648.9,30900
68648.9,30907.9
68748.9,30907.9
68748.9,30900
68756.8,30900
68756.8,30800
68748.9,30800
68748.9,30386.9
68648.9,30386.9
68648.9,30800
68099.1,30800
68099.1,30386.9
68161.6,30324.4
68241,30323.2
68290,30328
68337.2,30342.3
68374,30362
68410.8,30342.3
68458,30328
68507,30323.2
68586.4,30324.4
68648.9,30386.9
68748.9,30386.9
68811.4,30324.4
68890.8,30323.2
68939.8,30328
68987,30342.3
69030.4,30365.5
69068.5,30396.8
69093.6,30427.4
69095.6,30424.9
69148.3,30381.7
69208.3,30349.6
69273.4,30329.9
69341.1,30323.2
69533.1,30323.2
69600.8,30329.9
69665.9,30349.6
69725.9,30381.7
69778.5,30424.9
69821.7,30477.5
69853.8,30537.5
69873.6,30602.6
69880.2,30670.4
69880.2,31029.6
69873.6,31097.4
69853.8,31162.5
69821.7,31222.5
69799.2,31250
69821.7,31277.5
69853.8,31337.5
69873.6,31402.6
69880.2,31470.4
69880.2,31829.6
69873.6,31897.4
69853.8,31962.5
69849.1,31971.3
70443.9,31971.3
70460,31969.7
70476.1,31971.3
70524.4,31976
70586.4,31994.8
70643.5,32025.3
70693.6,32066.4
70703.9,32079
70925.3,32300.4
70925.3,30691.2
70915.7,30592.7
70890.9,30510.7
70850.7,30435
70796.5,30368.7
70730.5,30314
70655.1,30273.3
70573.3,30247.9
70475.7,30237.7
65281.8,30237.7
Z" /> 
<path style="fill:#FFFFFF; fill-opacity:1.0; 
stroke:#FFFFFF; stroke-width:100; stroke-opacity:1; 
stroke-linecap:round; stroke-linejoin:round;fill-rule:evenodd;"
d="M 62136,30432.5
62095.3,30507.9
62069.9,30589.7
62059.7,30687.3
62059.7,32773.5
62107.3,32725.9
62203.1,32661.9
62309.5,32617.8
62422.4,32595.4
62537.6,32595.4
62650.5,32617.8
62756.9,32661.9
62852.7,32725.9
62934.1,32807.3
62963.8,32851.7
63241.7,32851.7
63241.7,32688.3
63246.5,32639.3
63260.8,32592.1
63284,32548.7
63315.2,32510.6
63353.3,32479.4
63396.7,32456.2
63400.4,32455.1
63400.4,32347.5
63394.3,32344.2
63356.2,32313
63325,32274.9
63301.8,32231.5
63287.5,32184.4
63282.6,32135.4
63282.6,32019.5
63262.5,32019.2
63200,31956.7
63200,31954.5
63170.3,31978.9
63126.8,32002.1
63079.7,32016.4
63030.7,32021.2
62843.2,32020
62790.1,31966.9
62765.7,31946.8
62734.4,31908.8
62711.2,31865.3
62696.9,31818.2
62692.1,31769.2
62693.3,31448.6
62755.8,31386.1
62780.7,31386.1
62780.7,31286.1
62755.8,31286.1
62693.3,31223.6
62692.5,31020
62680.7,31020
62680.7,31957.5
62618.2,32020
62430.7,32021.2
62381.7,32016.4
62334.6,32002.1
62291.1,31978.9
62253.1,31947.6
62221.8,31909.6
62198.6,31866.1
62184.3,31819
62179.5,31770
62180.7,31082.5
62243.2,31020
62680.7,31020
62692.5,31020
62692.1,30912.1
62680.7,30912.1
62680.7,30920
62243.2,30920
62180.7,30857.5
62179.9,30379.5
Z" /> 
</g>
</g>
</g>
<g style="fill:#000000; fill-opacity:1.0; 
stroke:#000000; stroke-width:100; stroke-opacity:1; 
stroke-linecap:round; stroke-linejoin:round;">
</g>
<g style="fill:#000000; fill-opacity:1.0; 
stroke:#000000; stroke-width:0; stroke-opacity:1; 
stroke-linecap:round; stroke-linejoin:round;">
<circle cx="70812" cy="32203" r="59.0551" /> 
</g>
<g style="fill:#000000; fill-opacity:1.0; 
stroke:#000000; stroke-width:39.3701; stroke-opacity:1; 
stroke-linecap:round; stroke-linejoin:round;">
</g>
<g style="fill:#000000; fill-opacity:1.0; 
stroke:#000000; stroke-width:0; stroke-opacity:1; 
stroke-linecap:round; stroke-linejoin:round;">
<circle cx="65139.6" cy="32049" r="59.0551" /> 
</g>
<g style="fill:#000000; fill-opacity:1.0; 
stroke:#000000; stroke-width:39.3701; stroke-opacity:1; 
stroke-linecap:round; stroke-linejoin:round;">
</g>
<g style="fill:#000000; fill-opacity:1.0; 
stroke:#000000; stroke-width:0; stroke-opacity:1; 
stroke-linecap:round; stroke-linejoin:round;">
<circle cx="64745.9" cy="32049" r="59.0551" /> 
</g>
<g style="fill:#000000; fill-opacity:1.0; 
stroke:#000000; stroke-width:39.3701; stroke-opacity:1; 
stroke-linecap:round; stroke-linejoin:round;">
</g>
<g style="fill:#000000; fill-opacity:1.0; 
stroke:#000000; stroke-width:0; stroke-opacity:1; 
stroke-linecap:round; stroke-linejoin:round;">
<circle cx="64352.2" cy="32049" r="59.0551" /> 
</g>
<g style="fill:#000000; fill-opacity:1.0; 
stroke:#000000; stroke-width:39.3701; stroke-opacity:1; 
stroke-linecap:round; stroke-linejoin:round;">
</g>
<g style="fill:#000000; fill-opacity:1.0; 
stroke:#000000; stroke-width:0; stroke-opacity:1; 
stroke-linecap:round; stroke-linejoin:round;">
<circle cx="63129.4" cy="32049" r="59.0551" /> 
</g>
<g style="fill:#000000; fill-opacity:1.0; 
stroke:#000000; stroke-width:39.3701; stroke-opacity:1; 
stroke-linecap:round; stroke-linejoin:round;">
</g>
<g style="fill:#000000; fill-opacity:1.0; 
stroke:#000000; stroke-width:0; stroke-opacity:1; 
stroke-linecap:round; stroke-linejoin:round;">
<circle cx="62735.7" cy="32049" r="59.0551" /> 
</g>
<g style="fill:#000000; fill-opacity:1.0; 
stroke:#000000; stroke-width:39.3701; stroke-opacity:1; 
stroke-linecap:round; stroke-linejoin:round;">
</g>
<g style="fill:#000000; fill-opacity:1.0; 
stroke:#000000; stroke-width:0; stroke-opacity:1; 
stroke-linecap:round; stroke-linejoin:round;">
<circle cx="62342" cy="32049" r="59.0551" /> 
</g>
<g style="fill:#000000; fill-opacity:1.0; 
stroke:#000000; stroke-width:39.3701; stroke-opacity:1; 
stroke-linecap:round; stroke-linejoin:round;">
</g>
<g style="fill:#000000; fill-opacity:1.0; 
stroke:#000000; stroke-width:0; stroke-opacity:1; 
stroke-linecap:round; stroke-linejoin:round;">
<circle cx="65139.6" cy="32364" r="59.0551" /> 
</g>
<g style="fill:#000000; fill-opacity:1.0; 
stroke:#000000; stroke-width:39.3701; stroke-opacity:1; 
stroke-linecap:round; stroke-linejoin:round;">
</g>
<g style="fill:#000000; fill-opacity:1.0; 
stroke:#000000; stroke-width:0; stroke-opacity:1; 
stroke-linecap:round; stroke-linejoin:round;">
<circle cx="64745.9" cy="32364" r="59.0551" /> 
</g>
<g style="fill:#000000; fill-opacity:1.0; 
stroke:#000000; stroke-width:39.3701; stroke-opacity:1; 
stroke-linecap:round; stroke-linejoin:round;">
</g>
<g style="fill:#000000; fill-opacity:1.0; 
stroke:#000000; stroke-width:0; stroke-opacity:1; 
stroke-linecap:round; stroke-linejoin:round;">
<circle cx="64352.2" cy="32364" r="59.0551" /> 
</g>
<g style="fill:#000000; fill-opacity:1.0; 
stroke:#000000; stroke-width:39.3701; stroke-opacity:1; 
stroke-linecap:round; stroke-linejoin:round;">
</g>
<g style="fill:#000000; fill-opacity:1.0; 
stroke:#000000; stroke-width:0; stroke-opacity:1; 
stroke-linecap:round; stroke-linejoin:round;">
<circle cx="63129.4" cy="32364" r="59.0551" /> 
</g>
<g style="fill:#000000; fill-opacity:1.0; 
stroke:#000000; stroke-width:39.3701; stroke-opacity:1; 
stroke-linecap:round; stroke-linejoin:round;">
</g>
<g style="fill:#000000; fill-opacity:1.0; 
stroke:#000000; stroke-width:0; stroke-opacity:1; 
stroke-linecap:round; stroke-linejoin:round;">
<circle cx="62735.7" cy="32364" r="59.0551" /> 
</g>
<g style="fill:#000000; fill-opacity:1.0; 
stroke:#000000; stroke-width:39.3701; stroke-opacity:1; 
stroke-linecap:round; stroke-linejoin:round;">
</g>
<g style="fill:#000000; fill-opacity:1.0; 
stroke:#000000; stroke-width:0; stroke-opacity:1; 
stroke-linecap:round; stroke-linejoin:round;">
<circle cx="62342" cy="32364" r="59.0551" /> 
</g>
<g style="fill:#000000; fill-opacity:1.0; 
stroke:#000000; stroke-width:39.3701; stroke-opacity:1; 
stroke-linecap:round; stroke-linejoin:round;">
</g>
<g style="fill:#000000; fill-opacity:1.0; 
stroke:#000000; stroke-width:0; stroke-opacity:1; 
stroke-linecap:round; stroke-linejoin:round;">
<circle cx="63733" cy="31932" r="68.8976" /> 
</g>
<g style="fill:#000000; fill-opacity:1.0; 
stroke:#000000; stroke-width:39.3701; stroke-opacity:1; 
stroke-linecap:round; stroke-linejoin:round;">
</g>
<g style="fill:#000000; fill-opacity:1.0; 
stroke:#000000; stroke-width:0; stroke-opacity:1; 
stroke-linecap:round; stroke-linejoin:round;">
<circle cx="63730.7" cy="31934.6" r="68.8976" /> 
</g>
<g style="fill:#000000; fill-opacity:1.0; 
stroke:#000000; stroke-width:39.3701; stroke-opacity:1; 
stroke-linecap:round; stroke-linejoin:round;">
</g>
<g style="fill:#000000; fill-opacity:1.0; 
stroke:#000000; stroke-width:0; stroke-opacity:1; 
stroke-linecap:round; stroke-linejoin:round;">
<circle cx="70485" cy="33180" r="68.8976" /> 
</g>
<g style="fill:#000000; fill-opacity:1.0; 
stroke:#000000; stroke-width:39.3701; stroke-opacity:1; 
stroke-linecap:round; stroke-linejoin:round;">
</g>
<g style="fill:#000000; fill-opacity:1.0; 
stroke:#000000; stroke-width:0; stroke-opacity:1; 
stroke-linecap:round; stroke-linejoin:round;">
<circle cx="70485" cy="34180" r="68.8976" /> 
</g>
<g style="fill:#000000; fill-opacity:1.0; 
stroke:#000000; stroke-width:39.3701; stroke-opacity:1; 
stroke-linecap:round; stroke-linejoin:round;">
</g>
<g style="fill:#000000; fill-opacity:1.0; 
stroke:#000000; stroke-width:0; stroke-opacity:1; 
stroke-linecap:round; stroke-linejoin:round;">
<circle cx="70485" cy="35180" r="68.8976" /> 
</g>
<g style="fill:#000000; fill-opacity:1.0; 
stroke:#000000; stroke-width:39.3701; stroke-opacity:1; 
stroke-linecap:round; stroke-linejoin:round;">
</g>
<g style="fill:#000000; fill-opacity:1.0; 
stroke:#000000; stroke-width:0; stroke-opacity:1; 
stroke-linecap:round; stroke-linejoin:round;">
<circle cx="70485" cy="36180" r="68.8976" /> 
</g>
<g style="fill:#000000; fill-opacity:1.0; 
stroke:#000000; stroke-width:39.3701; stroke-opacity:1; 
stroke-linecap:round; stroke-linejoin:round;">
</g>
<g style="fill:#000000; fill-opacity:1.0; 
stroke:#000000; stroke-width:0; stroke-opacity:1; 
stroke-linecap:round; stroke-linejoin:round;">
<circle cx="70485" cy="37180" r="68.8976" /> 
</g>
<g style="fill:#000000; fill-opacity:1.0; 
stroke:#000000; stroke-width:39.3701; stroke-opacity:1; 
stroke-linecap:round; stroke-linejoin:round;">
</g>
<g style="fill:#000000; fill-opacity:1.0; 
stroke:#000000; stroke-width:0; stroke-opacity:1; 
stroke-linecap:round; stroke-linejoin:round;">
<circle cx="70485" cy="38180" r="68.8976" /> 
</g>
<g style="fill:#000000; fill-opacity:1.0; 
stroke:#000000; stroke-width:39.3701; stroke-opacity:1; 
stroke-linecap:round; stroke-linejoin:round;">
</g>
<g style="fill:#000000; fill-opacity:1.0; 
stroke:#000000; stroke-width:0; stroke-opacity:1; 
stroke-linecap:round; stroke-linejoin:round;">
<circle cx="70485" cy="39180" r="68.8976" /> 
</g>
<g style="fill:#000000; fill-opacity:1.0; 
stroke:#000000; stroke-width:39.3701; stroke-opacity:1; 
stroke-linecap:round; stroke-linejoin:round;">
</g>
<g style="fill:#000000; fill-opacity:1.0; 
stroke:#000000; stroke-width:0; stroke-opacity:1; 
stroke-linecap:round; stroke-linejoin:round;">
<circle cx="62480" cy="33180" r="68.8976" /> 
</g>
<g style="fill:#000000; fill-opacity:1.0; 
stroke:#000000; stroke-width:39.3701; stroke-opacity:1; 
stroke-linecap:round; stroke-linejoin:round;">
</g>
<g style="fill:#000000; fill-opacity:1.0; 
stroke:#000000; stroke-width:0; stroke-opacity:1; 
stroke-linecap:round; stroke-linejoin:round;">
<circle cx="62480" cy="34180" r="68.8976" /> 
</g>
<g style="fill:#000000; fill-opacity:1.0; 
stroke:#000000; stroke-width:39.3701; stroke-opacity:1; 
stroke-linecap:round; stroke-linejoin:round;">
</g>
<g style="fill:#000000; fill-opacity:1.0; 
stroke:#000000; stroke-width:0; stroke-opacity:1; 
stroke-linecap:round; stroke-linejoin:round;">
<circle cx="62480" cy="35180" r="68.8976" /> 
</g>
<g style="fill:#000000; fill-opacity:1.0; 
stroke:#000000; stroke-width:39.3701; stroke-opacity:1; 
stroke-linecap:round; stroke-linejoin:round;">
</g>
<g style="fill:#000000; fill-opacity:1.0; 
stroke:#000000; stroke-width:0; stroke-opacity:1; 
stroke-linecap:round; stroke-linejoin:round;">
<circle cx="62480" cy="36180" r="68.8976" /> 
</g>
<g style="fill:#000000; fill-opacity:1.0; 
stroke:#000000; stroke-width:39.3701; stroke-opacity:1; 
stroke-linecap:round; stroke-linejoin:round;">
</g>
<g style="fill:#000000; fill-opacity:1.0; 
stroke:#000000; stroke-width:0; stroke-opacity:1; 
stroke-linecap:round; stroke-linejoin:round;">
<circle cx="62480" cy="37180" r="68.8976" /> 
</g>
<g style="fill:#000000; fill-opacity:1.0; 
stroke:#000000; stroke-width:39.3701; stroke-opacity:1; 
stroke-linecap:round; stroke-linejoin:round;">
</g>
<g style="fill:#000000; fill-opacity:1.0; 
stroke:#000000; stroke-width:0; stroke-opacity:1; 
stroke-linecap:round; stroke-linejoin:round;">
<circle cx="62480" cy="38180" r="68.8976" /> 
</g>
<g style="fill:#000000; fill-opacity:1.0; 
stroke:#000000; stroke-width:39.3701; stroke-opacity:1; 
stroke-linecap:round; stroke-linejoin:round;">
</g>
<g style="fill:#000000; fill-opacity:1.0; 
stroke:#000000; stroke-width:0; stroke-opacity:1; 
stroke-linecap:round; stroke-linejoin:round;">
<circle cx="62480" cy="39180" r="68.8976" /> 
</g>
<g style="fill:#000000; fill-opacity:1.0; 
stroke:#000000; stroke-width:39.3701; stroke-opacity:1; 
stroke-linecap:round; stroke-linejoin:round;">
</g>
<g style="fill:#FFFFFF; fill-opacity:1.0; 
stroke:#FFFFFF; stroke-width:39.3701; stroke-opacity:1; 
stroke-linecap:round; stroke-linejoin:round;">
</g> 
</svg>
