<?xml version="1.0" standalone="no"?>
 <!DOCTYPE svg PUBLIC "-//W3C//DTD SVG 1.1//EN" 
 "http://www.w3.org/Graphics/SVG/1.1/DTD/svg11.dtd"> 
<svg
  xmlns:svg="http://www.w3.org/2000/svg"
  xmlns="http://www.w3.org/2000/svg"
  xmlns:xlink="http://www.w3.org/1999/xlink"
  version="1.1"
  width="29.700220cm" height="21.000720cm" viewBox="0 0 116930 82680">
<title>SVG Picture created as project-F_Mask.svg date 2022/07/15 13:37:44 </title>
  <desc>Picture generated by PCBNEW </desc>
<g style="fill:#000000; fill-opacity:1;stroke:#000000; stroke-opacity:1;
stroke-linecap:round; stroke-linejoin:round;"
 transform="translate(0 0) scale(1 1)">
</g>
<g style="fill:#000000; fill-opacity:0.0; 
stroke:#000000; stroke-width:-0.000393701; stroke-opacity:1; 
stroke-linecap:round; stroke-linejoin:round;">
<g >
</g>
<g style="fill:#000000; fill-opacity:0.0; 
stroke:#000000; stroke-width:0; stroke-opacity:1; 
stroke-linecap:round; stroke-linejoin:round;">
</g>
<g style="fill:#000000; fill-opacity:1.0; 
stroke:#000000; stroke-width:0; stroke-opacity:1; 
stroke-linecap:round; stroke-linejoin:round;">
<path style="fill:#000000; fill-opacity:1.0; 
stroke:#000000; stroke-width:0; stroke-opacity:1; 
stroke-linecap:round; stroke-linejoin:round;fill-rule:evenodd;"
d="M 68997,32609.9
68989.3,32611
68981.8,32612.9
68974.6,32615.5
68967.6,32618.8
68960.9,32622.8
68954.7,32627.4
68949,32632.6
68943.8,32638.3
68939.2,32644.5
68935.2,32651.1
68931.9,32658.1
68929.3,32665.4
68927.5,32672.9
68926.3,32680.5
68925.9,32688.3
68925.9,33672.5
68926.3,33680.2
68927.5,33687.9
68929.3,33695.4
68931.9,33702.7
68935.2,33709.6
68939.2,33716.3
68943.8,33722.5
68949,33728.2
68954.7,33733.4
68960.9,33738
68967.6,33742
68974.6,33745.3
68981.8,33747.9
68989.3,33749.7
68997,33750.9
69004.7,33751.3
69477.1,33751.3
69484.8,33750.9
69492.5,33749.7
69500,33747.9
69507.3,33745.3
69514.2,33742
69520.9,33738
69527.1,33733.4
69532.8,33728.2
69538,33722.5
69542.6,33716.3
69546.6,33709.6
69549.9,33702.7
69552.5,33695.4
69554.4,33687.9
69555.5,33680.2
69555.9,33672.5
69555.9,32688.3
69555.5,32680.5
69554.4,32672.9
69552.5,32665.4
69549.9,32658.1
69546.6,32651.1
69542.6,32644.5
69538,32638.3
69532.8,32632.6
69527.1,32627.4
69520.9,32622.8
69514.2,32618.8
69507.3,32615.5
69500,32612.9
69492.5,32611
69484.8,32609.9
69477.1,32609.5
69004.7,32609.5
Z" /> 
<path style="fill:#000000; fill-opacity:1.0; 
stroke:#000000; stroke-width:0; stroke-opacity:1; 
stroke-linecap:round; stroke-linejoin:round;fill-rule:evenodd;"
d="M 68209.6,32609.9
68201.9,32611
68194.4,32612.9
68187.2,32615.5
68180.2,32618.8
68173.5,32622.8
68167.3,32627.4
68161.6,32632.6
68156.4,32638.3
68151.8,32644.5
68147.8,32651.1
68144.5,32658.1
68141.9,32665.4
68140.1,32672.9
68138.9,32680.5
68138.5,32688.3
68138.5,33672.5
68138.9,33680.2
68140.1,33687.9
68141.9,33695.4
68144.5,33702.7
68147.8,33709.6
68151.8,33716.3
68156.4,33722.5
68161.6,33728.2
68167.3,33733.4
68173.5,33738
68180.2,33742
68187.2,33745.3
68194.4,33747.9
68201.9,33749.7
68209.6,33750.9
68217.3,33751.3
68689.7,33751.3
68697.4,33750.9
68705.1,33749.7
68712.6,33747.9
68719.9,33745.3
68726.8,33742
68733.5,33738
68739.7,33733.4
68745.4,33728.2
68750.6,33722.5
68755.2,33716.3
68759.2,33709.6
68762.5,33702.7
68765.1,33695.4
68767,33687.9
68768.1,33680.2
68768.5,33672.5
68768.5,32688.3
68768.1,32680.5
68767,32672.9
68765.1,32665.4
68762.5,32658.1
68759.2,32651.1
68755.2,32644.5
68750.6,32638.3
68745.4,32632.6
68739.7,32627.4
68733.5,32622.8
68726.8,32618.8
68719.9,32615.5
68712.6,32612.9
68705.1,32611
68697.4,32609.9
68689.7,32609.5
68217.3,32609.5
Z" /> 
<path style="fill:#000000; fill-opacity:1.0; 
stroke:#000000; stroke-width:0; stroke-opacity:1; 
stroke-linecap:round; stroke-linejoin:round;fill-rule:evenodd;"
d="M 67422.2,32609.9
67414.5,32611
67407,32612.9
67399.7,32615.5
67392.8,32618.8
67386.1,32622.8
67379.9,32627.4
67374.2,32632.6
67369,32638.3
67364.4,32644.5
67360.4,32651.1
67357.1,32658.1
67354.5,32665.4
67352.7,32672.9
67351.5,32680.5
67351.1,32688.3
67351.1,33672.5
67351.5,33680.2
67352.7,33687.9
67354.5,33695.4
67357.1,33702.7
67360.4,33709.6
67364.4,33716.3
67369,33722.5
67374.2,33728.2
67379.9,33733.4
67386.1,33738
67392.8,33742
67399.7,33745.3
67407,33747.9
67414.5,33749.7
67422.2,33750.9
67429.9,33751.3
67902.3,33751.3
67910,33750.9
67917.7,33749.7
67925.2,33747.9
67932.5,33745.3
67939.4,33742
67946.1,33738
67952.3,33733.4
67958,33728.2
67963.2,33722.5
67967.8,33716.3
67971.8,33709.6
67975.1,33702.7
67977.7,33695.4
67979.6,33687.9
67980.7,33680.2
67981.1,33672.5
67981.1,32688.3
67980.7,32680.5
67979.6,32672.9
67977.7,32665.4
67975.1,32658.1
67971.8,32651.1
67967.8,32644.5
67963.2,32638.3
67958,32632.6
67952.3,32627.4
67946.1,32622.8
67939.4,32618.8
67932.5,32615.5
67925.2,32612.9
67917.7,32611
67910,32609.9
67902.3,32609.5
67429.9,32609.5
Z" /> 
<path style="fill:#000000; fill-opacity:1.0; 
stroke:#000000; stroke-width:0; stroke-opacity:1; 
stroke-linecap:round; stroke-linejoin:round;fill-rule:evenodd;"
d="M 66634.8,32609.9
66627.1,32611
66619.6,32612.9
66612.3,32615.5
66605.4,32618.8
66598.7,32622.8
66592.5,32627.4
66586.8,32632.6
66581.6,32638.3
66577,32644.5
66573,32651.1
66569.7,32658.1
66567.1,32665.4
66565.3,32672.9
66564.1,32680.5
66563.7,32688.3
66563.7,33672.5
66564.1,33680.2
66565.3,33687.9
66567.1,33695.4
66569.7,33702.7
66573,33709.6
66577,33716.3
66581.6,33722.5
66586.8,33728.2
66592.5,33733.4
66598.7,33738
66605.4,33742
66612.3,33745.3
66619.6,33747.9
66627.1,33749.7
66634.8,33750.9
66642.5,33751.3
67114.9,33751.3
67122.6,33750.9
67130.3,33749.7
67137.8,33747.9
67145.1,33745.3
67152,33742
67158.7,33738
67164.9,33733.4
67170.6,33728.2
67175.8,33722.5
67180.4,33716.3
67184.4,33709.6
67187.7,33702.7
67190.3,33695.4
67192.1,33687.9
67193.3,33680.2
67193.7,33672.5
67193.7,32688.3
67193.3,32680.5
67192.1,32672.9
67190.3,32665.4
67187.7,32658.1
67184.4,32651.1
67180.4,32644.5
67175.8,32638.3
67170.6,32632.6
67164.9,32627.4
67158.7,32622.8
67152,32618.8
67145.1,32615.5
67137.8,32612.9
67130.3,32611
67122.6,32609.9
67114.9,32609.5
66642.5,32609.5
Z" /> 
<path style="fill:#000000; fill-opacity:1.0; 
stroke:#000000; stroke-width:0; stroke-opacity:1; 
stroke-linecap:round; stroke-linejoin:round;fill-rule:evenodd;"
d="M 65847.4,32609.9
65839.7,32611
65832.2,32612.9
65824.9,32615.5
65818,32618.8
65811.3,32622.8
65805.1,32627.4
65799.4,32632.6
65794.2,32638.3
65789.6,32644.5
65785.6,32651.1
65782.3,32658.1
65779.7,32665.4
65777.9,32672.9
65776.7,32680.5
65776.3,32688.3
65776.3,33672.5
65776.7,33680.2
65777.9,33687.9
65779.7,33695.4
65782.3,33702.7
65785.6,33709.6
65789.6,33716.3
65794.2,33722.5
65799.4,33728.2
65805.1,33733.4
65811.3,33738
65818,33742
65824.9,33745.3
65832.2,33747.9
65839.7,33749.7
65847.4,33750.9
65855.1,33751.3
66327.5,33751.3
66335.2,33750.9
66342.9,33749.7
66350.4,33747.9
66357.7,33745.3
66364.6,33742
66371.3,33738
66377.5,33733.4
66383.2,33728.2
66388.4,33722.5
66393,33716.3
66397,33709.6
66400.3,33702.7
66402.9,33695.4
66404.7,33687.9
66405.9,33680.2
66406.3,33672.5
66406.3,32688.3
66405.9,32680.5
66404.7,32672.9
66402.9,32665.4
66400.3,32658.1
66397,32651.1
66393,32644.5
66388.4,32638.3
66383.2,32632.6
66377.5,32627.4
66371.3,32622.8
66364.6,32618.8
66357.7,32615.5
66350.4,32612.9
66342.9,32611
66335.2,32609.9
66327.5,32609.5
65855.1,32609.5
Z" /> 
<path style="fill:#000000; fill-opacity:1.0; 
stroke:#000000; stroke-width:0; stroke-opacity:1; 
stroke-linecap:round; stroke-linejoin:round;fill-rule:evenodd;"
d="M 65060,32609.9
65052.3,32611
65044.8,32612.9
65037.5,32615.5
65030.6,32618.8
65023.9,32622.8
65017.7,32627.4
65012,32632.6
65006.8,32638.3
65002.2,32644.5
64998.2,32651.1
64994.9,32658.1
64992.3,32665.4
64990.4,32672.9
64989.3,32680.5
64988.9,32688.3
64988.9,33672.5
64989.3,33680.2
64990.4,33687.9
64992.3,33695.4
64994.9,33702.7
64998.2,33709.6
65002.2,33716.3
65006.8,33722.5
65012,33728.2
65017.7,33733.4
65023.9,33738
65030.6,33742
65037.5,33745.3
65044.8,33747.9
65052.3,33749.7
65060,33750.9
65067.7,33751.3
65540.1,33751.3
65547.8,33750.9
65555.5,33749.7
65563,33747.9
65570.3,33745.3
65577.2,33742
65583.9,33738
65590.1,33733.4
65595.8,33728.2
65601,33722.5
65605.6,33716.3
65609.6,33709.6
65612.9,33702.7
65615.5,33695.4
65617.3,33687.9
65618.5,33680.2
65618.9,33672.5
65618.9,32688.3
65618.5,32680.5
65617.3,32672.9
65615.5,32665.4
65612.9,32658.1
65609.6,32651.1
65605.6,32644.5
65601,32638.3
65595.8,32632.6
65590.1,32627.4
65583.9,32622.8
65577.2,32618.8
65570.3,32615.5
65563,32612.9
65555.5,32611
65547.8,32609.9
65540.1,32609.5
65067.7,32609.5
Z" /> 
<path style="fill:#000000; fill-opacity:1.0; 
stroke:#000000; stroke-width:0; stroke-opacity:1; 
stroke-linecap:round; stroke-linejoin:round;fill-rule:evenodd;"
d="M 64272.6,32609.9
64264.9,32611
64257.4,32612.9
64250.1,32615.5
64243.2,32618.8
64236.5,32622.8
64230.3,32627.4
64224.6,32632.6
64219.4,32638.3
64214.8,32644.5
64210.8,32651.1
64207.5,32658.1
64204.9,32665.4
64203,32672.9
64201.9,32680.5
64201.5,32688.3
64201.5,33672.5
64201.9,33680.2
64203,33687.9
64204.9,33695.4
64207.5,33702.7
64210.8,33709.6
64214.8,33716.3
64219.4,33722.5
64224.6,33728.2
64230.3,33733.4
64236.5,33738
64243.2,33742
64250.1,33745.3
64257.4,33747.9
64264.9,33749.7
64272.6,33750.9
64280.3,33751.3
64752.7,33751.3
64760.4,33750.9
64768.1,33749.7
64775.6,33747.9
64782.8,33745.3
64789.8,33742
64796.5,33738
64802.7,33733.4
64808.4,33728.2
64813.6,33722.5
64818.2,33716.3
64822.2,33709.6
64825.5,33702.7
64828.1,33695.4
64829.9,33687.9
64831.1,33680.2
64831.5,33672.5
64831.5,32688.3
64831.1,32680.5
64829.9,32672.9
64828.1,32665.4
64825.5,32658.1
64822.2,32651.1
64818.2,32644.5
64813.6,32638.3
64808.4,32632.6
64802.7,32627.4
64796.5,32622.8
64789.8,32618.8
64782.8,32615.5
64775.6,32612.9
64768.1,32611
64760.4,32609.9
64752.7,32609.5
64280.3,32609.5
Z" /> 
<path style="fill:#000000; fill-opacity:1.0; 
stroke:#000000; stroke-width:0; stroke-opacity:1; 
stroke-linecap:round; stroke-linejoin:round;fill-rule:evenodd;"
d="M 63485.2,32609.9
63477.5,32611
63470,32612.9
63462.7,32615.5
63455.8,32618.8
63449.1,32622.8
63442.9,32627.4
63437.2,32632.6
63432,32638.3
63427.4,32644.5
63423.4,32651.1
63420.1,32658.1
63417.5,32665.4
63415.6,32672.9
63414.5,32680.5
63414.1,32688.3
63414.1,33672.5
63414.5,33680.2
63415.6,33687.9
63417.5,33695.4
63420.1,33702.7
63423.4,33709.6
63427.4,33716.3
63432,33722.5
63437.2,33728.2
63442.9,33733.4
63449.1,33738
63455.8,33742
63462.7,33745.3
63470,33747.9
63477.5,33749.7
63485.2,33750.9
63492.9,33751.3
63965.3,33751.3
63973,33750.9
63980.7,33749.7
63988.2,33747.9
63995.4,33745.3
64002.4,33742
64009.1,33738
64015.3,33733.4
64021,33728.2
64026.2,33722.5
64030.8,33716.3
64034.8,33709.6
64038.1,33702.7
64040.7,33695.4
64042.5,33687.9
64043.7,33680.2
64044.1,33672.5
64044.1,32688.3
64043.7,32680.5
64042.5,32672.9
64040.7,32665.4
64038.1,32658.1
64034.8,32651.1
64030.8,32644.5
64026.2,32638.3
64021,32632.6
64015.3,32627.4
64009.1,32622.8
64002.4,32618.8
63995.4,32615.5
63988.2,32612.9
63980.7,32611
63973,32609.9
63965.3,32609.5
63492.9,32609.5
Z" /> 
<path style="fill:#000000; fill-opacity:1.0; 
stroke:#000000; stroke-width:0; stroke-opacity:1; 
stroke-linecap:round; stroke-linejoin:round;fill-rule:evenodd;"
d="M 63485.2,38909.1
63477.5,38910.3
63470,38912.1
63462.7,38914.7
63455.8,38918
63449.1,38922
63442.9,38926.6
63437.2,38931.8
63432,38937.5
63427.4,38943.7
63423.4,38950.4
63420.1,38957.3
63417.5,38964.6
63415.6,38972.1
63414.5,38979.8
63414.1,38987.5
63414.1,39971.7
63414.5,39979.4
63415.6,39987.1
63417.5,39994.6
63420.1,40001.9
63423.4,40008.8
63427.4,40015.5
63432,40021.7
63437.2,40027.4
63442.9,40032.6
63449.1,40037.2
63455.8,40041.2
63462.7,40044.5
63470,40047.1
63477.5,40049
63485.2,40050.1
63492.9,40050.5
63965.3,40050.5
63973,40050.1
63980.7,40049
63988.2,40047.1
63995.4,40044.5
64002.4,40041.2
64009.1,40037.2
64015.3,40032.6
64021,40027.4
64026.2,40021.7
64030.8,40015.5
64034.8,40008.8
64038.1,40001.9
64040.7,39994.6
64042.5,39987.1
64043.7,39979.4
64044.1,39971.7
64044.1,38987.5
64043.7,38979.8
64042.5,38972.1
64040.7,38964.6
64038.1,38957.3
64034.8,38950.4
64030.8,38943.7
64026.2,38937.5
64021,38931.8
64015.3,38926.6
64009.1,38922
64002.4,38918
63995.4,38914.7
63988.2,38912.1
63980.7,38910.3
63973,38909.1
63965.3,38908.7
63492.9,38908.7
Z" /> 
<path style="fill:#000000; fill-opacity:1.0; 
stroke:#000000; stroke-width:0; stroke-opacity:1; 
stroke-linecap:round; stroke-linejoin:round;fill-rule:evenodd;"
d="M 64272.6,38909.1
64264.9,38910.3
64257.4,38912.1
64250.1,38914.7
64243.2,38918
64236.5,38922
64230.3,38926.6
64224.6,38931.8
64219.4,38937.5
64214.8,38943.7
64210.8,38950.4
64207.5,38957.3
64204.9,38964.6
64203,38972.1
64201.9,38979.8
64201.5,38987.5
64201.5,39971.7
64201.9,39979.4
64203,39987.1
64204.9,39994.6
64207.5,40001.9
64210.8,40008.8
64214.8,40015.5
64219.4,40021.7
64224.6,40027.4
64230.3,40032.6
64236.5,40037.2
64243.2,40041.2
64250.1,40044.5
64257.4,40047.1
64264.9,40049
64272.6,40050.1
64280.3,40050.5
64752.7,40050.5
64760.4,40050.1
64768.1,40049
64775.6,40047.1
64782.8,40044.5
64789.8,40041.2
64796.5,40037.2
64802.7,40032.6
64808.4,40027.4
64813.6,40021.7
64818.2,40015.5
64822.2,40008.8
64825.5,40001.9
64828.1,39994.6
64829.9,39987.1
64831.1,39979.4
64831.5,39971.7
64831.5,38987.5
64831.1,38979.8
64829.9,38972.1
64828.1,38964.6
64825.5,38957.3
64822.2,38950.4
64818.2,38943.7
64813.6,38937.5
64808.4,38931.8
64802.7,38926.6
64796.5,38922
64789.8,38918
64782.8,38914.7
64775.6,38912.1
64768.1,38910.3
64760.4,38909.1
64752.7,38908.7
64280.3,38908.7
Z" /> 
<path style="fill:#000000; fill-opacity:1.0; 
stroke:#000000; stroke-width:0; stroke-opacity:1; 
stroke-linecap:round; stroke-linejoin:round;fill-rule:evenodd;"
d="M 65060,38909.1
65052.3,38910.3
65044.8,38912.1
65037.5,38914.7
65030.6,38918
65023.9,38922
65017.7,38926.6
65012,38931.8
65006.8,38937.5
65002.2,38943.7
64998.2,38950.4
64994.9,38957.3
64992.3,38964.6
64990.4,38972.1
64989.3,38979.8
64988.9,38987.5
64988.9,39971.7
64989.3,39979.4
64990.4,39987.1
64992.3,39994.6
64994.9,40001.9
64998.2,40008.8
65002.2,40015.5
65006.8,40021.7
65012,40027.4
65017.7,40032.6
65023.9,40037.2
65030.6,40041.2
65037.5,40044.5
65044.8,40047.1
65052.3,40049
65060,40050.1
65067.7,40050.5
65540.1,40050.5
65547.8,40050.1
65555.5,40049
65563,40047.1
65570.3,40044.5
65577.2,40041.2
65583.9,40037.2
65590.1,40032.6
65595.8,40027.4
65601,40021.7
65605.6,40015.5
65609.6,40008.8
65612.9,40001.9
65615.5,39994.6
65617.3,39987.1
65618.5,39979.4
65618.9,39971.7
65618.9,38987.5
65618.5,38979.8
65617.3,38972.1
65615.5,38964.6
65612.9,38957.3
65609.6,38950.4
65605.6,38943.7
65601,38937.5
65595.8,38931.8
65590.1,38926.6
65583.9,38922
65577.2,38918
65570.3,38914.7
65563,38912.1
65555.5,38910.3
65547.8,38909.1
65540.1,38908.7
65067.7,38908.7
Z" /> 
<path style="fill:#000000; fill-opacity:1.0; 
stroke:#000000; stroke-width:0; stroke-opacity:1; 
stroke-linecap:round; stroke-linejoin:round;fill-rule:evenodd;"
d="M 65847.4,38909.1
65839.7,38910.3
65832.2,38912.1
65824.9,38914.7
65818,38918
65811.3,38922
65805.1,38926.6
65799.4,38931.8
65794.2,38937.5
65789.6,38943.7
65785.6,38950.4
65782.3,38957.3
65779.7,38964.6
65777.9,38972.1
65776.7,38979.8
65776.3,38987.5
65776.3,39971.7
65776.7,39979.4
65777.9,39987.1
65779.7,39994.6
65782.3,40001.9
65785.6,40008.8
65789.6,40015.5
65794.2,40021.7
65799.4,40027.4
65805.1,40032.6
65811.3,40037.2
65818,40041.2
65824.9,40044.5
65832.2,40047.1
65839.7,40049
65847.4,40050.1
65855.1,40050.5
66327.5,40050.5
66335.2,40050.1
66342.9,40049
66350.4,40047.1
66357.7,40044.5
66364.6,40041.2
66371.3,40037.2
66377.5,40032.6
66383.2,40027.4
66388.4,40021.7
66393,40015.5
66397,40008.8
66400.3,40001.9
66402.9,39994.6
66404.7,39987.1
66405.9,39979.4
66406.3,39971.7
66406.3,38987.5
66405.9,38979.8
66404.7,38972.1
66402.9,38964.6
66400.3,38957.3
66397,38950.4
66393,38943.7
66388.4,38937.5
66383.2,38931.8
66377.5,38926.6
66371.3,38922
66364.6,38918
66357.7,38914.7
66350.4,38912.1
66342.9,38910.3
66335.2,38909.1
66327.5,38908.7
65855.1,38908.7
Z" /> 
<path style="fill:#000000; fill-opacity:1.0; 
stroke:#000000; stroke-width:0; stroke-opacity:1; 
stroke-linecap:round; stroke-linejoin:round;fill-rule:evenodd;"
d="M 66634.8,38909.1
66627.1,38910.3
66619.6,38912.1
66612.3,38914.7
66605.4,38918
66598.7,38922
66592.5,38926.6
66586.8,38931.8
66581.6,38937.5
66577,38943.7
66573,38950.4
66569.7,38957.3
66567.1,38964.6
66565.3,38972.1
66564.1,38979.8
66563.7,38987.5
66563.7,39971.7
66564.1,39979.4
66565.3,39987.1
66567.1,39994.6
66569.7,40001.9
66573,40008.8
66577,40015.5
66581.6,40021.7
66586.8,40027.4
66592.5,40032.6
66598.7,40037.2
66605.4,40041.2
66612.3,40044.5
66619.6,40047.1
66627.1,40049
66634.8,40050.1
66642.5,40050.5
67114.9,40050.5
67122.6,40050.1
67130.3,40049
67137.8,40047.1
67145.1,40044.5
67152,40041.2
67158.7,40037.2
67164.9,40032.6
67170.6,40027.4
67175.8,40021.7
67180.4,40015.5
67184.4,40008.8
67187.7,40001.9
67190.3,39994.6
67192.1,39987.1
67193.3,39979.4
67193.7,39971.7
67193.7,38987.5
67193.3,38979.8
67192.1,38972.1
67190.3,38964.6
67187.7,38957.3
67184.4,38950.4
67180.4,38943.7
67175.8,38937.5
67170.6,38931.8
67164.9,38926.6
67158.7,38922
67152,38918
67145.1,38914.7
67137.8,38912.1
67130.3,38910.3
67122.6,38909.1
67114.9,38908.7
66642.5,38908.7
Z" /> 
<path style="fill:#000000; fill-opacity:1.0; 
stroke:#000000; stroke-width:0; stroke-opacity:1; 
stroke-linecap:round; stroke-linejoin:round;fill-rule:evenodd;"
d="M 67422.2,38909.1
67414.5,38910.3
67407,38912.1
67399.7,38914.7
67392.8,38918
67386.1,38922
67379.9,38926.6
67374.2,38931.8
67369,38937.5
67364.4,38943.7
67360.4,38950.4
67357.1,38957.3
67354.5,38964.6
67352.7,38972.1
67351.5,38979.8
67351.1,38987.5
67351.1,39971.7
67351.5,39979.4
67352.7,39987.1
67354.5,39994.6
67357.1,40001.9
67360.4,40008.8
67364.4,40015.5
67369,40021.7
67374.2,40027.4
67379.9,40032.6
67386.1,40037.2
67392.8,40041.2
67399.7,40044.5
67407,40047.1
67414.5,40049
67422.2,40050.1
67429.9,40050.5
67902.3,40050.5
67910,40050.1
67917.7,40049
67925.2,40047.1
67932.5,40044.5
67939.4,40041.2
67946.1,40037.2
67952.3,40032.6
67958,40027.4
67963.2,40021.7
67967.8,40015.5
67971.8,40008.8
67975.1,40001.9
67977.7,39994.6
67979.6,39987.1
67980.7,39979.4
67981.1,39971.7
67981.1,38987.5
67980.7,38979.8
67979.6,38972.1
67977.7,38964.6
67975.1,38957.3
67971.8,38950.4
67967.8,38943.7
67963.2,38937.5
67958,38931.8
67952.3,38926.6
67946.1,38922
67939.4,38918
67932.5,38914.7
67925.2,38912.1
67917.7,38910.3
67910,38909.1
67902.3,38908.7
67429.9,38908.7
Z" /> 
<path style="fill:#000000; fill-opacity:1.0; 
stroke:#000000; stroke-width:0; stroke-opacity:1; 
stroke-linecap:round; stroke-linejoin:round;fill-rule:evenodd;"
d="M 68209.6,38909.1
68201.9,38910.3
68194.4,38912.1
68187.2,38914.7
68180.2,38918
68173.5,38922
68167.3,38926.6
68161.6,38931.8
68156.4,38937.5
68151.8,38943.7
68147.8,38950.4
68144.5,38957.3
68141.9,38964.6
68140.1,38972.1
68138.9,38979.8
68138.5,38987.5
68138.5,39971.7
68138.9,39979.4
68140.1,39987.1
68141.9,39994.6
68144.5,40001.9
68147.8,40008.8
68151.8,40015.5
68156.4,40021.7
68161.6,40027.4
68167.3,40032.6
68173.5,40037.2
68180.2,40041.2
68187.2,40044.5
68194.4,40047.1
68201.9,40049
68209.6,40050.1
68217.3,40050.5
68689.7,40050.5
68697.4,40050.1
68705.1,40049
68712.6,40047.1
68719.9,40044.5
68726.8,40041.2
68733.5,40037.2
68739.7,40032.6
68745.4,40027.4
68750.6,40021.7
68755.2,40015.5
68759.2,40008.8
68762.5,40001.9
68765.1,39994.6
68767,39987.1
68768.1,39979.4
68768.5,39971.7
68768.5,38987.5
68768.1,38979.8
68767,38972.1
68765.1,38964.6
68762.5,38957.3
68759.2,38950.4
68755.2,38943.7
68750.6,38937.5
68745.4,38931.8
68739.7,38926.6
68733.5,38922
68726.8,38918
68719.9,38914.7
68712.6,38912.1
68705.1,38910.3
68697.4,38909.1
68689.7,38908.7
68217.3,38908.7
Z" /> 
<path style="fill:#000000; fill-opacity:1.0; 
stroke:#000000; stroke-width:0; stroke-opacity:1; 
stroke-linecap:round; stroke-linejoin:round;fill-rule:evenodd;"
d="M 68997,38909.1
68989.3,38910.3
68981.8,38912.1
68974.6,38914.7
68967.6,38918
68960.9,38922
68954.7,38926.6
68949,38931.8
68943.8,38937.5
68939.2,38943.7
68935.2,38950.4
68931.9,38957.3
68929.3,38964.6
68927.5,38972.1
68926.3,38979.8
68925.9,38987.5
68925.9,39971.7
68926.3,39979.4
68927.5,39987.1
68929.3,39994.6
68931.9,40001.9
68935.2,40008.8
68939.2,40015.5
68943.8,40021.7
68949,40027.4
68954.7,40032.6
68960.9,40037.2
68967.6,40041.2
68974.6,40044.5
68981.8,40047.1
68989.3,40049
68997,40050.1
69004.7,40050.5
69477.1,40050.5
69484.8,40050.1
69492.5,40049
69500,40047.1
69507.3,40044.5
69514.2,40041.2
69520.9,40037.2
69527.1,40032.6
69532.8,40027.4
69538,40021.7
69542.6,40015.5
69546.6,40008.8
69549.9,40001.9
69552.5,39994.6
69554.4,39987.1
69555.5,39979.4
69555.9,39971.7
69555.9,38987.5
69555.5,38979.8
69554.4,38972.1
69552.5,38964.6
69549.9,38957.3
69546.6,38950.4
69542.6,38943.7
69538,38937.5
69532.8,38931.8
69527.1,38926.6
69520.9,38922
69514.2,38918
69507.3,38914.7
69500,38912.1
69492.5,38910.3
69484.8,38909.1
69477.1,38908.7
69004.7,38908.7
Z" /> 
</g>
<g >
</g>
<g style="fill:#000000; fill-opacity:1.0; 
stroke:#000000; stroke-width:0; stroke-opacity:1; 
stroke-linecap:round; stroke-linejoin:round;">
<circle cx="63730.7" cy="31934.6" r="275.591" /> 
</g>
<g style="fill:#000000; fill-opacity:1.0; 
stroke:#000000; stroke-width:39.3701; stroke-opacity:1; 
stroke-linecap:round; stroke-linejoin:round;">
</g>
<g style="fill:#000000; fill-opacity:1.0; 
stroke:#000000; stroke-width:0; stroke-opacity:1; 
stroke-linecap:round; stroke-linejoin:round;">
<path style="fill:#000000; fill-opacity:1.0; 
stroke:#000000; stroke-width:0; stroke-opacity:1; 
stroke-linecap:round; stroke-linejoin:round;fill-rule:evenodd;"
d="M 63526.1,31643.6
63518.5,31644.7
63511,31646.6
63503.7,31649.2
63496.7,31652.5
63490.1,31656.5
63483.9,31661.1
63478.2,31666.3
63473,31672
63468.4,31678.2
63464.4,31684.9
63461.1,31691.8
63458.5,31699.1
63456.6,31706.6
63455.5,31714.3
63455.1,31722
63455.1,32135.4
63455.5,32143.1
63456.6,32150.7
63458.5,32158.2
63461.1,32165.5
63464.4,32172.5
63468.4,32179.1
63473,32185.3
63478.2,32191
63483.9,32196.2
63490.1,32200.8
63496.7,32204.8
63503.7,32208.1
63511,32210.7
63518.5,32212.6
63526.1,32213.7
63533.9,32214.1
63927.6,32214.1
63935.3,32213.7
63942.9,32212.6
63950.4,32210.7
63957.7,32208.1
63964.7,32204.8
63971.3,32200.8
63977.5,32196.2
63983.2,32191
63988.4,32185.3
63993,32179.1
63997,32172.5
64000.3,32165.5
64002.9,32158.2
64004.8,32150.7
64005.9,32143.1
64006.3,32135.4
64006.3,31722
64005.9,31714.3
64004.8,31706.6
64002.9,31699.1
64000.3,31691.8
63997,31684.9
63993,31678.2
63988.4,31672
63983.2,31666.3
63977.5,31661.1
63971.3,31656.5
63964.7,31652.5
63957.7,31649.2
63950.4,31646.6
63942.9,31644.7
63935.3,31643.6
63927.6,31643.2
63533.9,31643.2
Z" /> 
<path style="fill:#000000; fill-opacity:1.0; 
stroke:#000000; stroke-width:0; stroke-opacity:1; 
stroke-linecap:round; stroke-linejoin:round;fill-rule:evenodd;"
d="M 62935.6,30824.7
62927.9,30825.8
62920.4,30827.7
62913.2,30830.3
62906.2,30833.6
62899.6,30837.6
62893.4,30842.2
62887.6,30847.4
62882.4,30853.1
62877.8,30859.3
62873.9,30866
62870.6,30872.9
62868,30880.2
62866.1,30887.7
62864.9,30895.4
62864.6,30903.1
62864.6,31769.2
62864.9,31776.9
62866.1,31784.6
62868,31792.1
62870.6,31799.3
62873.9,31806.3
62877.8,31813
62882.4,31819.2
62887.6,31824.9
62893.4,31830.1
62899.6,31834.7
62906.2,31838.7
62913.2,31842
62920.4,31844.6
62927.9,31846.4
62935.6,31847.6
62943.3,31848
63356.7,31848
63364.4,31847.6
63372.1,31846.4
63379.5,31844.6
63386.8,31842
63393.8,31838.7
63400.4,31834.7
63406.6,31830.1
63412.4,31824.9
63417.6,31819.2
63422.2,31813
63426.1,31806.3
63429.4,31799.3
63432,31792.1
63433.9,31784.6
63435.1,31776.9
63435.4,31769.2
63435.4,30903.1
63435.1,30895.4
63433.9,30887.7
63432,30880.2
63429.4,30872.9
63426.1,30866
63422.2,30859.3
63417.6,30853.1
63412.4,30847.4
63406.6,30842.2
63400.4,30837.6
63393.8,30833.6
63386.8,30830.3
63379.5,30827.7
63372.1,30825.8
63364.4,30824.7
63356.7,30824.3
62943.3,30824.3
Z" /> 
<path style="fill:#000000; fill-opacity:1.0; 
stroke:#000000; stroke-width:0; stroke-opacity:1; 
stroke-linecap:round; stroke-linejoin:round;fill-rule:evenodd;"
d="M 64097,30824.7
64089.4,30825.8
64081.9,30827.7
64074.6,30830.3
64067.6,30833.6
64061,30837.6
64054.8,30842.2
64049,30847.4
64043.9,30853.1
64039.3,30859.3
64035.3,30866
64032,30872.9
64029.4,30880.2
64027.5,30887.7
64026.4,30895.4
64026,30903.1
64026,31769.2
64026.4,31776.9
64027.5,31784.6
64029.4,31792.1
64032,31799.3
64035.3,31806.3
64039.3,31813
64043.9,31819.2
64049,31824.9
64054.8,31830.1
64061,31834.7
64067.6,31838.7
64074.6,31842
64081.9,31844.6
64089.4,31846.4
64097,31847.6
64104.7,31848
64518.1,31848
64525.8,31847.6
64533.5,31846.4
64541,31844.6
64548.2,31842
64555.2,31838.7
64561.9,31834.7
64568.1,31830.1
64573.8,31824.9
64579,31819.2
64583.6,31813
64587.6,31806.3
64590.9,31799.3
64593.5,31792.1
64595.3,31784.6
64596.5,31776.9
64596.9,31769.2
64596.9,30903.1
64596.5,30895.4
64595.3,30887.7
64593.5,30880.2
64590.9,30872.9
64587.6,30866
64583.6,30859.3
64579,30853.1
64573.8,30847.4
64568.1,30842.2
64561.9,30837.6
64555.2,30833.6
64548.2,30830.3
64541,30827.7
64533.5,30825.8
64525.8,30824.7
64518.1,30824.3
64104.7,30824.3
Z" /> 
<path style="fill:#000000; fill-opacity:1.0; 
stroke:#000000; stroke-width:0; stroke-opacity:1; 
stroke-linecap:round; stroke-linejoin:round;fill-rule:evenodd;"
d="M 62423,30091.6
62415.3,30092.8
62407.9,30094.7
62400.6,30097.3
62393.6,30100.6
62387,30104.5
62380.8,30109.1
62375,30114.3
62369.8,30120
62365.2,30126.3
62361.3,30132.9
62358,30139.9
62355.4,30147.1
62353.5,30154.6
62352.3,30162.3
62352,30170
62352,31770
62352.3,31777.7
62353.5,31785.4
62355.4,31792.9
62358,31800.1
62361.3,31807.1
62365.2,31813.7
62369.8,31820
62375,31825.7
62380.8,31830.9
62387,31835.5
62393.6,31839.4
62400.6,31842.7
62407.9,31845.3
62415.3,31847.2
62423,31848.4
62430.7,31848.7
63030.7,31848.7
63038.4,31848.4
63046.1,31847.2
63053.6,31845.3
63060.8,31842.7
63067.8,31839.4
63074.5,31835.5
63080.7,31830.9
63086.4,31825.7
63091.6,31820
63096.2,31813.7
63100.2,31807.1
63103.5,31800.1
63106.1,31792.9
63107.9,31785.4
63109.1,31777.7
63109.4,31770
63109.4,30170
63109.1,30162.3
63107.9,30154.6
63106.1,30147.1
63103.5,30139.9
63100.2,30132.9
63096.2,30126.3
63091.6,30120
63086.4,30114.3
63080.7,30109.1
63074.5,30104.5
63067.8,30100.6
63060.8,30097.3
63053.6,30094.7
63046.1,30092.8
63038.4,30091.6
63030.7,30091.3
62430.7,30091.3
Z" /> 
<path style="fill:#000000; fill-opacity:1.0; 
stroke:#000000; stroke-width:0; stroke-opacity:1; 
stroke-linecap:round; stroke-linejoin:round;fill-rule:evenodd;"
d="M 64423,30091.6
64415.3,30092.8
64407.9,30094.7
64400.6,30097.3
64393.6,30100.6
64387,30104.5
64380.8,30109.1
64375,30114.3
64369.8,30120
64365.2,30126.3
64361.3,30132.9
64358,30139.9
64355.4,30147.1
64353.5,30154.6
64352.3,30162.3
64352,30170
64352,31770
64352.3,31777.7
64353.5,31785.4
64355.4,31792.9
64358,31800.1
64361.3,31807.1
64365.2,31813.7
64369.8,31820
64375,31825.7
64380.8,31830.9
64387,31835.5
64393.6,31839.4
64400.6,31842.7
64407.9,31845.3
64415.3,31847.2
64423,31848.4
64430.7,31848.7
65030.7,31848.7
65038.4,31848.4
65046.1,31847.2
65053.6,31845.3
65060.8,31842.7
65067.8,31839.4
65074.5,31835.5
65080.7,31830.9
65086.4,31825.7
65091.6,31820
65096.2,31813.7
65100.2,31807.1
65103.5,31800.1
65106.1,31792.9
65107.9,31785.4
65109.1,31777.7
65109.4,31770
65109.4,30170
65109.1,30162.3
65107.9,30154.6
65106.1,30147.1
65103.5,30139.9
65100.2,30132.9
65096.2,30126.3
65091.6,30120
65086.4,30114.3
65080.7,30109.1
65074.5,30104.5
65067.8,30100.6
65060.8,30097.3
65053.6,30094.7
65046.1,30092.8
65038.4,30091.6
65030.7,30091.3
64430.7,30091.3
Z" /> 
</g>
<g >
</g>
<g style="fill:#000000; fill-opacity:1.0; 
stroke:#000000; stroke-width:0; stroke-opacity:1; 
stroke-linecap:round; stroke-linejoin:round;">
<path style="fill:#000000; fill-opacity:1.0; 
stroke:#000000; stroke-width:0; stroke-opacity:1; 
stroke-linecap:round; stroke-linejoin:round;fill-rule:evenodd;"
d="M 67162.3,30496.3
67149.2,30498.3
67136.3,30501.5
67123.8,30506
67111.8,30511.6
67100.4,30518.5
67089.7,30526.4
67079.9,30535.3
67071,30545.1
67063,30555.8
67056.2,30567.2
67050.5,30579.2
67046.1,30591.7
67042.8,30604.6
67040.9,30617.7
67040.2,30631
67040.2,31069
67040.9,31082.3
67042.8,31095.4
67046.1,31108.3
67050.5,31120.8
67056.2,31132.8
67063,31144.2
67071,31154.9
67079.9,31164.7
67089.7,31173.6
67100.4,31181.5
67111.8,31188.4
67123.8,31194
67136.3,31198.5
67149.2,31201.7
67162.3,31203.7
67175.6,31204.3
67446.2,31204.3
67459.5,31203.7
67472.6,31201.7
67485.5,31198.5
67498,31194
67510,31188.4
67521.4,31181.5
67532.1,31173.6
67541.9,31164.7
67550.9,31154.9
67558.8,31144.2
67565.6,31132.8
67571.3,31120.8
67575.7,31108.3
67579,31095.4
67580.9,31082.3
67581.6,31069
67581.6,30631
67580.9,30617.7
67579,30604.6
67575.7,30591.7
67571.3,30579.2
67565.6,30567.2
67558.8,30555.8
67550.9,30545.1
67541.9,30535.3
67532.1,30526.4
67521.4,30518.5
67510,30511.6
67498,30506
67485.5,30501.5
67472.6,30498.3
67459.5,30496.3
67446.2,30495.7
67175.6,30495.7
Z" /> 
<path style="fill:#000000; fill-opacity:1.0; 
stroke:#000000; stroke-width:0; stroke-opacity:1; 
stroke-linecap:round; stroke-linejoin:round;fill-rule:evenodd;"
d="M 67900.5,30496.3
67887.4,30498.3
67874.5,30501.5
67862,30506
67850,30511.6
67838.6,30518.5
67827.9,30526.4
67818.1,30535.3
67809.1,30545.1
67801.2,30555.8
67794.4,30567.2
67788.7,30579.2
67784.3,30591.7
67781,30604.6
67779.1,30617.7
67778.4,30631
67778.4,31069
67779.1,31082.3
67781,31095.4
67784.3,31108.3
67788.7,31120.8
67794.4,31132.8
67801.2,31144.2
67809.1,31154.9
67818.1,31164.7
67827.9,31173.6
67838.6,31181.5
67850,31188.4
67862,31194
67874.5,31198.5
67887.4,31201.7
67900.5,31203.7
67913.8,31204.3
68184.4,31204.3
68197.7,31203.7
68210.8,31201.7
68223.7,31198.5
68236.2,31194
68248.2,31188.4
68259.6,31181.5
68270.3,31173.6
68280.1,31164.7
68289,31154.9
68297,31144.2
68303.8,31132.8
68309.5,31120.8
68313.9,31108.3
68317.2,31095.4
68319.1,31082.3
68319.8,31069
68319.8,30631
68319.1,30617.7
68317.2,30604.6
68313.9,30591.7
68309.5,30579.2
68303.8,30567.2
68297,30555.8
68289,30545.1
68280.1,30535.3
68270.3,30526.4
68259.6,30518.5
68248.2,30511.6
68236.2,30506
68223.7,30501.5
68210.8,30498.3
68197.7,30496.3
68184.4,30495.7
67913.8,30495.7
Z" /> 
</g>
<g >
</g>
<g style="fill:#000000; fill-opacity:1.0; 
stroke:#000000; stroke-width:0; stroke-opacity:1; 
stroke-linecap:round; stroke-linejoin:round;">
<path style="fill:#000000; fill-opacity:1.0; 
stroke:#000000; stroke-width:0; stroke-opacity:1; 
stroke-linecap:round; stroke-linejoin:round;fill-rule:evenodd;"
d="M 67900.5,31296.3
67887.4,31298.3
67874.5,31301.5
67862,31306
67850,31311.6
67838.6,31318.5
67827.9,31326.4
67818.1,31335.3
67809.1,31345.1
67801.2,31355.8
67794.4,31367.2
67788.7,31379.2
67784.3,31391.7
67781,31404.6
67779.1,31417.7
67778.4,31431
67778.4,31869
67779.1,31882.3
67781,31895.4
67784.3,31908.3
67788.7,31920.8
67794.4,31932.8
67801.2,31944.2
67809.1,31954.9
67818.1,31964.7
67827.9,31973.6
67838.6,31981.5
67850,31988.4
67862,31994
67874.5,31998.5
67887.4,32001.7
67900.5,32003.7
67913.8,32004.3
68184.4,32004.3
68197.7,32003.7
68210.8,32001.7
68223.7,31998.5
68236.2,31994
68248.2,31988.4
68259.6,31981.5
68270.3,31973.6
68280.1,31964.7
68289,31954.9
68297,31944.2
68303.8,31932.8
68309.5,31920.8
68313.9,31908.3
68317.2,31895.4
68319.1,31882.3
68319.8,31869
68319.8,31431
68319.1,31417.7
68317.2,31404.6
68313.9,31391.7
68309.5,31379.2
68303.8,31367.2
68297,31355.8
68289,31345.1
68280.1,31335.3
68270.3,31326.4
68259.6,31318.5
68248.2,31311.6
68236.2,31306
68223.7,31301.5
68210.8,31298.3
68197.7,31296.3
68184.4,31295.7
67913.8,31295.7
Z" /> 
<path style="fill:#000000; fill-opacity:1.0; 
stroke:#000000; stroke-width:0; stroke-opacity:1; 
stroke-linecap:round; stroke-linejoin:round;fill-rule:evenodd;"
d="M 67162.3,31296.3
67149.2,31298.3
67136.3,31301.5
67123.8,31306
67111.8,31311.6
67100.4,31318.5
67089.7,31326.4
67079.9,31335.3
67071,31345.1
67063,31355.8
67056.2,31367.2
67050.5,31379.2
67046.1,31391.7
67042.8,31404.6
67040.9,31417.7
67040.2,31431
67040.2,31869
67040.9,31882.3
67042.8,31895.4
67046.1,31908.3
67050.5,31920.8
67056.2,31932.8
67063,31944.2
67071,31954.9
67079.9,31964.7
67089.7,31973.6
67100.4,31981.5
67111.8,31988.4
67123.8,31994
67136.3,31998.5
67149.2,32001.7
67162.3,32003.7
67175.6,32004.3
67446.2,32004.3
67459.5,32003.7
67472.6,32001.7
67485.5,31998.5
67498,31994
67510,31988.4
67521.4,31981.5
67532.1,31973.6
67541.9,31964.7
67550.9,31954.9
67558.8,31944.2
67565.6,31932.8
67571.3,31920.8
67575.7,31908.3
67579,31895.4
67580.9,31882.3
67581.6,31869
67581.6,31431
67580.9,31417.7
67579,31404.6
67575.7,31391.7
67571.3,31379.2
67565.6,31367.2
67558.8,31355.8
67550.9,31345.1
67541.9,31335.3
67532.1,31326.4
67521.4,31318.5
67510,31311.6
67498,31306
67485.5,31301.5
67472.6,31298.3
67459.5,31296.3
67446.2,31295.7
67175.6,31295.7
Z" /> 
</g>
<g >
</g>
<g style="fill:#000000; fill-opacity:1.0; 
stroke:#000000; stroke-width:0; stroke-opacity:1; 
stroke-linecap:round; stroke-linejoin:round;">
<path style="fill:#000000; fill-opacity:1.0; 
stroke:#000000; stroke-width:0; stroke-opacity:1; 
stroke-linecap:round; stroke-linejoin:round;fill-rule:evenodd;"
d="M 68550.3,30496.3
68537.2,30498.3
68524.3,30501.5
68511.8,30506
68499.8,30511.6
68488.4,30518.5
68477.7,30526.4
68467.9,30535.3
68459,30545.1
68451,30555.8
68444.2,30567.2
68438.5,30579.2
68434.1,30591.7
68430.8,30604.6
68428.9,30617.7
68428.2,30631
68428.2,31069
68428.9,31082.3
68430.8,31095.4
68434.1,31108.3
68438.5,31120.8
68444.2,31132.8
68451,31144.2
68459,31154.9
68467.9,31164.7
68477.7,31173.6
68488.4,31181.5
68499.8,31188.4
68511.8,31194
68524.3,31198.5
68537.2,31201.7
68550.3,31203.7
68563.6,31204.3
68834.2,31204.3
68847.5,31203.7
68860.6,31201.7
68873.5,31198.5
68886,31194
68898,31188.4
68909.4,31181.5
68920.1,31173.6
68929.9,31164.7
68938.9,31154.9
68946.8,31144.2
68953.6,31132.8
68959.3,31120.8
68963.7,31108.3
68967,31095.4
68968.9,31082.3
68969.6,31069
68969.6,30631
68968.9,30617.7
68967,30604.6
68963.7,30591.7
68959.3,30579.2
68953.6,30567.2
68946.8,30555.8
68938.9,30545.1
68929.9,30535.3
68920.1,30526.4
68909.4,30518.5
68898,30511.6
68886,30506
68873.5,30501.5
68860.6,30498.3
68847.5,30496.3
68834.2,30495.7
68563.6,30495.7
Z" /> 
<path style="fill:#000000; fill-opacity:1.0; 
stroke:#000000; stroke-width:0; stroke-opacity:1; 
stroke-linecap:round; stroke-linejoin:round;fill-rule:evenodd;"
d="M 69288.5,30496.3
69275.4,30498.3
69262.5,30501.5
69250,30506
69238,30511.6
69226.6,30518.5
69215.9,30526.4
69206.1,30535.3
69197.1,30545.1
69189.2,30555.8
69182.4,30567.2
69176.7,30579.2
69172.3,30591.7
69169,30604.6
69167.1,30617.7
69166.4,30631
69166.4,31069
69167.1,31082.3
69169,31095.4
69172.3,31108.3
69176.7,31120.8
69182.4,31132.8
69189.2,31144.2
69197.1,31154.9
69206.1,31164.7
69215.9,31173.6
69226.6,31181.5
69238,31188.4
69250,31194
69262.5,31198.5
69275.4,31201.7
69288.5,31203.7
69301.8,31204.3
69572.4,31204.3
69585.7,31203.7
69598.8,31201.7
69611.7,31198.5
69624.2,31194
69636.2,31188.4
69647.6,31181.5
69658.3,31173.6
69668.1,31164.7
69677,31154.9
69685,31144.2
69691.8,31132.8
69697.5,31120.8
69701.9,31108.3
69705.2,31095.4
69707.1,31082.3
69707.8,31069
69707.8,30631
69707.1,30617.7
69705.2,30604.6
69701.9,30591.7
69697.5,30579.2
69691.8,30567.2
69685,30555.8
69677,30545.1
69668.1,30535.3
69658.3,30526.4
69647.6,30518.5
69636.2,30511.6
69624.2,30506
69611.7,30501.5
69598.8,30498.3
69585.7,30496.3
69572.4,30495.7
69301.8,30495.7
Z" /> 
</g>
<g >
</g>
<g style="fill:#000000; fill-opacity:1.0; 
stroke:#000000; stroke-width:0; stroke-opacity:1; 
stroke-linecap:round; stroke-linejoin:round;">
<path style="fill:#000000; fill-opacity:1.0; 
stroke:#000000; stroke-width:0; stroke-opacity:1; 
stroke-linecap:round; stroke-linejoin:round;fill-rule:evenodd;"
d="M 69288.5,31296.3
69275.4,31298.3
69262.5,31301.5
69250,31306
69238,31311.6
69226.6,31318.5
69215.9,31326.4
69206.1,31335.3
69197.1,31345.1
69189.2,31355.8
69182.4,31367.2
69176.7,31379.2
69172.3,31391.7
69169,31404.6
69167.1,31417.7
69166.4,31431
69166.4,31869
69167.1,31882.3
69169,31895.4
69172.3,31908.3
69176.7,31920.8
69182.4,31932.8
69189.2,31944.2
69197.1,31954.9
69206.1,31964.7
69215.9,31973.6
69226.6,31981.5
69238,31988.4
69250,31994
69262.5,31998.5
69275.4,32001.7
69288.5,32003.7
69301.8,32004.3
69572.4,32004.3
69585.7,32003.7
69598.8,32001.7
69611.7,31998.5
69624.2,31994
69636.2,31988.4
69647.6,31981.5
69658.3,31973.6
69668.1,31964.7
69677,31954.9
69685,31944.2
69691.8,31932.8
69697.5,31920.8
69701.9,31908.3
69705.2,31895.4
69707.1,31882.3
69707.8,31869
69707.8,31431
69707.1,31417.7
69705.2,31404.6
69701.9,31391.7
69697.5,31379.2
69691.8,31367.2
69685,31355.8
69677,31345.1
69668.1,31335.3
69658.3,31326.4
69647.6,31318.5
69636.2,31311.6
69624.2,31306
69611.7,31301.5
69598.8,31298.3
69585.7,31296.3
69572.4,31295.7
69301.8,31295.7
Z" /> 
<path style="fill:#000000; fill-opacity:1.0; 
stroke:#000000; stroke-width:0; stroke-opacity:1; 
stroke-linecap:round; stroke-linejoin:round;fill-rule:evenodd;"
d="M 68550.3,31296.3
68537.2,31298.3
68524.3,31301.5
68511.8,31306
68499.8,31311.6
68488.4,31318.5
68477.7,31326.4
68467.9,31335.3
68459,31345.1
68451,31355.8
68444.2,31367.2
68438.5,31379.2
68434.1,31391.7
68430.8,31404.6
68428.9,31417.7
68428.2,31431
68428.2,31869
68428.9,31882.3
68430.8,31895.4
68434.1,31908.3
68438.5,31920.8
68444.2,31932.8
68451,31944.2
68459,31954.9
68467.9,31964.7
68477.7,31973.6
68488.4,31981.5
68499.8,31988.4
68511.8,31994
68524.3,31998.5
68537.2,32001.7
68550.3,32003.7
68563.6,32004.3
68834.2,32004.3
68847.5,32003.7
68860.6,32001.7
68873.5,31998.5
68886,31994
68898,31988.4
68909.4,31981.5
68920.1,31973.6
68929.9,31964.7
68938.9,31954.9
68946.8,31944.2
68953.6,31932.8
68959.3,31920.8
68963.7,31908.3
68967,31895.4
68968.9,31882.3
68969.6,31869
68969.6,31431
68968.9,31417.7
68967,31404.6
68963.7,31391.7
68959.3,31379.2
68953.6,31367.2
68946.8,31355.8
68938.9,31345.1
68929.9,31335.3
68920.1,31326.4
68909.4,31318.5
68898,31311.6
68886,31306
68873.5,31301.5
68860.6,31298.3
68847.5,31296.3
68834.2,31295.7
68563.6,31295.7
Z" /> 
</g>
<g >
</g>
<g style="fill:#000000; fill-opacity:1.0; 
stroke:#000000; stroke-width:0; stroke-opacity:1; 
stroke-linecap:round; stroke-linejoin:round;">
<circle cx="70485" cy="33180" r="413.386" /> 
<circle cx="70485" cy="34180" r="413.386" /> 
<circle cx="70485" cy="35180" r="413.386" /> 
<circle cx="70485" cy="36180" r="413.386" /> 
<circle cx="70485" cy="37180" r="413.386" /> 
<circle cx="70485" cy="38180" r="413.386" /> 
<circle cx="70485" cy="39180" r="413.386" /> 
</g>
<g style="fill:#000000; fill-opacity:1.0; 
stroke:#000000; stroke-width:39.3701; stroke-opacity:1; 
stroke-linecap:round; stroke-linejoin:round;">
</g>
<g >
</g>
<g style="fill:#000000; fill-opacity:1.0; 
stroke:#000000; stroke-width:39.3701; stroke-opacity:1; 
stroke-linecap:round; stroke-linejoin:round;">
</g>
<g style="fill:#000000; fill-opacity:1.0; 
stroke:#000000; stroke-width:0; stroke-opacity:1; 
stroke-linecap:round; stroke-linejoin:round;">
<circle cx="62480" cy="33180" r="413.386" /> 
<circle cx="62480" cy="34180" r="413.386" /> 
<circle cx="62480" cy="35180" r="413.386" /> 
<circle cx="62480" cy="36180" r="413.386" /> 
<circle cx="62480" cy="37180" r="413.386" /> 
<circle cx="62480" cy="38180" r="413.386" /> 
<circle cx="62480" cy="39180" r="413.386" /> 
</g>
<g style="fill:#000000; fill-opacity:1.0; 
stroke:#000000; stroke-width:39.3701; stroke-opacity:1; 
stroke-linecap:round; stroke-linejoin:round;">
</g>
<g >
</g>
<g >
</g>
<g >
</g>
</g>
<g style="fill:#000000; fill-opacity:1.0; 
stroke:#000000; stroke-width:39.3701; stroke-opacity:1; 
stroke-linecap:round; stroke-linejoin:round;">
<path style="fill:#000000; fill-opacity:1.0; 
stroke:#000000; stroke-width:39.3701; stroke-opacity:1; 
stroke-linecap:round; stroke-linejoin:round;fill-rule:evenodd;"
d="M 69707,31868.9
69704.4,31895.2
69696.7,31920.5
69684.3,31943.7
69667.6,31964.1
69647.2,31980.9
69623.9,31993.3
69598.7,32001
69572.4,32003.5
69571.7,32004
69571.8,32004.8
69572.4,32005.1
69594.6,32005.1
69594.7,32005.1
69618.7,32002.8
69618.8,32002.7
69639.5,31996.4
69639.7,31996.4
69658.8,31986.2
69658.9,31986.1
69675.7,31972.3
69675.8,31972.2
69689.5,31955.5
69689.6,31955.4
69699.8,31936.3
69699.9,31936.1
69706.2,31915.4
69706.2,31915.2
69708.5,31891.3
69708.6,31891.2
69708.6,31869
69708.2,31868.3
69707.4,31868.3
Z" /> 
<path style="fill:#000000; fill-opacity:1.0; 
stroke:#000000; stroke-width:39.3701; stroke-opacity:1; 
stroke-linecap:round; stroke-linejoin:round;fill-rule:evenodd;"
d="M 67778,31868.4
67777.6,31869
67777.6,31891.2
67777.6,31891.3
67780,31915.2
67780,31915.4
67786.3,31936.1
67786.4,31936.3
67796.6,31955.4
67796.7,31955.5
67810.4,31972.2
67810.5,31972.3
67827.3,31986.1
67827.4,31986.2
67846.5,31996.4
67846.6,31996.4
67867.4,32002.7
67867.5,32002.8
67891.5,32005.1
67891.6,32005.1
67913.8,32005.1
67914.4,32004.7
67914.4,32003.9
67913.8,32003.5
67887.5,32001
67862.3,31993.3
67839,31980.9
67818.6,31964.1
67801.9,31943.7
67789.5,31920.5
67781.8,31895.2
67779.2,31868.9
67778.8,31868.3
Z" /> 
<path style="fill:#000000; fill-opacity:1.0; 
stroke:#000000; stroke-width:39.3701; stroke-opacity:1; 
stroke-linecap:round; stroke-linejoin:round;fill-rule:evenodd;"
d="M 69166,31868.4
69165.6,31869
69165.6,31891.2
69165.6,31891.3
69168,31915.2
69168,31915.4
69174.3,31936.1
69174.4,31936.3
69184.6,31955.4
69184.7,31955.5
69198.4,31972.2
69198.5,31972.3
69215.3,31986.1
69215.4,31986.2
69234.5,31996.4
69234.6,31996.4
69255.4,32002.7
69255.5,32002.8
69279.5,32005.1
69279.6,32005.1
69301.8,32005.1
69302.4,32004.7
69302.4,32003.9
69301.8,32003.5
69275.5,32001
69250.3,31993.3
69227,31980.9
69206.6,31964.1
69189.9,31943.7
69177.5,31920.5
69169.8,31895.2
69167.2,31868.9
69166.8,31868.3
Z" /> 
<path style="fill:#000000; fill-opacity:1.0; 
stroke:#000000; stroke-width:39.3701; stroke-opacity:1; 
stroke-linecap:round; stroke-linejoin:round;fill-rule:evenodd;"
d="M 68319,31868.9
68316.4,31895.2
68308.7,31920.5
68296.3,31943.7
68279.6,31964.1
68259.2,31980.9
68235.9,31993.3
68210.7,32001
68184.4,32003.5
68183.7,32004
68183.8,32004.8
68184.4,32005.1
68206.6,32005.1
68206.7,32005.1
68230.7,32002.8
68230.8,32002.7
68251.5,31996.4
68251.7,31996.4
68270.8,31986.2
68270.9,31986.1
68287.7,31972.3
68287.8,31972.2
68301.5,31955.5
68301.6,31955.4
68311.8,31936.3
68311.9,31936.1
68318.2,31915.4
68318.2,31915.2
68320.5,31891.3
68320.6,31891.2
68320.6,31869
68320.2,31868.3
68319.4,31868.3
Z" /> 
<path style="fill:#000000; fill-opacity:1.0; 
stroke:#000000; stroke-width:39.3701; stroke-opacity:1; 
stroke-linecap:round; stroke-linejoin:round;fill-rule:evenodd;"
d="M 68968.8,31868.9
68966.2,31895.2
68958.5,31920.5
68946.1,31943.7
68929.4,31964.1
68909,31980.9
68885.7,31993.3
68860.5,32001
68834.2,32003.5
68833.5,32004
68833.6,32004.8
68834.2,32005.1
68856.4,32005.1
68856.5,32005.1
68880.5,32002.8
68880.6,32002.7
68901.4,31996.4
68901.5,31996.4
68920.6,31986.2
68920.7,31986.1
68937.5,31972.3
68937.6,31972.2
68951.3,31955.5
68951.4,31955.4
68961.6,31936.3
68961.7,31936.1
68968,31915.4
68968,31915.2
68970.4,31891.3
68970.4,31891.2
68970.4,31869
68970,31868.3
68969.2,31868.3
Z" /> 
<path style="fill:#000000; fill-opacity:1.0; 
stroke:#000000; stroke-width:39.3701; stroke-opacity:1; 
stroke-linecap:round; stroke-linejoin:round;fill-rule:evenodd;"
d="M 67039.8,31868.4
67039.4,31869
67039.4,31891.2
67039.5,31891.3
67041.8,31915.2
67041.8,31915.4
67048.1,31936.1
67048.2,31936.3
67058.4,31955.4
67058.5,31955.5
67072.2,31972.2
67072.3,31972.3
67089.1,31986.1
67089.2,31986.2
67108.3,31996.4
67108.5,31996.4
67129.2,32002.7
67129.3,32002.8
67153.3,32005.1
67153.4,32005.1
67175.6,32005.1
67176.3,32004.7
67176.3,32003.9
67175.6,32003.5
67149.3,32001
67124.1,31993.3
67100.8,31980.9
67080.4,31964.1
67063.7,31943.7
67051.3,31920.5
67043.6,31895.2
67041,31868.9
67040.6,31868.3
Z" /> 
<path style="fill:#000000; fill-opacity:1.0; 
stroke:#000000; stroke-width:39.3701; stroke-opacity:1; 
stroke-linecap:round; stroke-linejoin:round;fill-rule:evenodd;"
d="M 67580.8,31868.9
67578.2,31895.2
67570.5,31920.5
67558.1,31943.7
67541.4,31964.1
67521,31980.9
67497.7,31993.3
67472.5,32001
67446.2,32003.5
67445.5,32004
67445.6,32004.8
67446.2,32005.1
67468.4,32005.1
67468.5,32005.1
67492.5,32002.8
67492.6,32002.7
67513.4,31996.4
67513.5,31996.4
67532.6,31986.2
67532.7,31986.1
67549.5,31972.3
67549.6,31972.2
67563.3,31955.5
67563.4,31955.4
67573.6,31936.3
67573.7,31936.1
67580,31915.4
67580,31915.2
67582.4,31891.3
67582.4,31891.2
67582.4,31869
67582,31868.3
67581.2,31868.3
Z" /> 
<path style="fill:#000000; fill-opacity:1.0; 
stroke:#000000; stroke-width:39.3701; stroke-opacity:1; 
stroke-linecap:round; stroke-linejoin:round;fill-rule:evenodd;"
d="M 68427.8,31868.4
68427.4,31869
68427.4,31891.2
68427.5,31891.3
68429.8,31915.2
68429.8,31915.4
68436.1,31936.1
68436.2,31936.3
68446.4,31955.4
68446.5,31955.5
68460.2,31972.2
68460.3,31972.3
68477.1,31986.1
68477.2,31986.2
68496.3,31996.4
68496.5,31996.4
68517.2,32002.7
68517.3,32002.8
68541.3,32005.1
68541.4,32005.1
68563.6,32005.1
68564.3,32004.7
68564.3,32003.9
68563.6,32003.5
68537.3,32001
68512.1,31993.3
68488.8,31980.9
68468.4,31964.1
68451.7,31943.7
68439.3,31920.5
68431.6,31895.2
68429,31868.9
68428.6,31868.3
Z" /> 
<path style="fill:#000000; fill-opacity:1.0; 
stroke:#000000; stroke-width:39.3701; stroke-opacity:1; 
stroke-linecap:round; stroke-linejoin:round;fill-rule:evenodd;"
d="M 63435,31593.4
63434.6,31594
63434.6,31847.2
63405.9,31847.2
63405.2,31847.6
63405.2,31848.3
63405.8,31848.7
63415.4,31849.7
63424.4,31852.4
63432.8,31856.9
63440.1,31862.9
63446.2,31870.3
63450.6,31878.6
63453.4,31887.7
63454.3,31897.2
63454.8,31897.9
63455.6,31897.8
63455.9,31897.2
63455.9,31644
63484.6,31644
63485.3,31643.6
63485.3,31642.8
63484.7,31642.4
63475.2,31641.5
63466.1,31638.8
63457.7,31634.3
63450.4,31628.3
63444.4,31620.9
63439.9,31612.5
63437.2,31603.5
63436.2,31593.9
63435.8,31593.3
Z" /> 
<path style="fill:#000000; fill-opacity:1.0; 
stroke:#000000; stroke-width:39.3701; stroke-opacity:1; 
stroke-linecap:round; stroke-linejoin:round;fill-rule:evenodd;"
d="M 64025.2,31593.9
64024.3,31603.5
64021.5,31612.5
64017,31620.9
64011,31628.3
64003.7,31634.3
63995.3,31638.8
63986.2,31641.5
63976.7,31642.4
63976.1,31642.9
63976.1,31643.7
63976.8,31644
64005.5,31644
64005.5,31897.2
64005.9,31897.8
64006.7,31897.8
64007.1,31897.2
64008,31887.7
64010.8,31878.6
64015.3,31870.3
64021.3,31862.9
64028.6,31856.9
64037,31852.4
64046.1,31849.7
64055.6,31848.7
64056.2,31848.3
64056.2,31847.5
64055.5,31847.2
64026.8,31847.2
64026.8,31594
64026.4,31593.3
64025.6,31593.3
Z" /> 
<path style="fill:#000000; fill-opacity:1.0; 
stroke:#000000; stroke-width:39.3701; stroke-opacity:1; 
stroke-linecap:round; stroke-linejoin:round;fill-rule:evenodd;"
d="M 67039.8,31068.4
67039.4,31069
67039.4,31091.2
67039.5,31091.3
67041.8,31115.2
67041.8,31115.4
67048.1,31136.1
67048.2,31136.3
67058.4,31155.4
67058.5,31155.5
67072.2,31172.2
67072.3,31172.3
67089.1,31186.1
67089.2,31186.2
67108.3,31196.4
67108.5,31196.4
67132.2,31203.6
67141,31207.3
67148.9,31212.6
67155.6,31219.3
67160.9,31227.2
67164.5,31235.9
67166.4,31245.3
67166.4,31254.7
67164.5,31264.1
67160.9,31272.8
67155.6,31280.7
67148.9,31287.4
67141,31292.7
67132.2,31296.4
67108.5,31303.6
67108.3,31303.6
67089.2,31313.8
67089.1,31313.9
67072.3,31327.7
67072.2,31327.8
67058.5,31344.5
67058.4,31344.6
67048.2,31363.7
67048.1,31363.9
67041.8,31384.6
67041.8,31384.8
67039.5,31408.7
67039.4,31408.8
67039.4,31431
67039.8,31431.7
67040.6,31431.7
67041,31431.1
67043.6,31404.8
67051.3,31379.5
67063.7,31356.3
67080.4,31335.9
67100.8,31319.1
67124.1,31306.7
67149.3,31299
67175.6,31296.5
67446.2,31296.5
67472.5,31299
67497.7,31306.7
67521,31319.1
67541.4,31335.9
67558.1,31356.3
67570.5,31379.5
67578.2,31404.8
67580.8,31431.1
67581.2,31431.7
67582,31431.6
67582.4,31431
67582.4,31408.8
67582.4,31408.7
67580,31384.8
67580,31384.6
67573.7,31363.9
67573.6,31363.7
67563.4,31344.6
67563.3,31344.5
67549.6,31327.8
67549.5,31327.7
67532.7,31313.9
67532.6,31313.8
67513.5,31303.6
67513.4,31303.6
67489.6,31296.4
67480.8,31292.7
67472.9,31287.4
67466.2,31280.7
67460.9,31272.8
67457.3,31264.1
67455.4,31254.7
67455.4,31245.3
67457.3,31235.9
67460.9,31227.2
67466.2,31219.3
67472.9,31212.6
67480.8,31207.3
67489.6,31203.6
67513.4,31196.4
67513.5,31196.4
67532.6,31186.2
67532.7,31186.1
67549.5,31172.3
67549.6,31172.2
67563.3,31155.5
67563.4,31155.4
67573.6,31136.3
67573.7,31136.1
67580,31115.4
67580,31115.2
67582.4,31091.3
67582.4,31091.2
67582.4,31069
67582,31068.3
67581.2,31068.3
67580.8,31068.9
67578.2,31095.2
67570.5,31120.5
67558.1,31143.7
67541.4,31164.1
67521,31180.9
67497.7,31193.3
67472.5,31201
67446.2,31203.5
67175.6,31203.5
67149.3,31201
67124.1,31193.3
67100.8,31180.9
67080.4,31164.1
67063.7,31143.7
67051.3,31120.5
67043.6,31095.2
67041,31068.9
67040.6,31068.3
Z" /> 
<path style="fill:#000000; fill-opacity:1.0; 
stroke:#000000; stroke-width:39.3701; stroke-opacity:1; 
stroke-linecap:round; stroke-linejoin:round;fill-rule:evenodd;"
d="M 68427.8,31068.4
68427.4,31069
68427.4,31091.2
68427.5,31091.3
68429.8,31115.2
68429.8,31115.4
68436.1,31136.1
68436.2,31136.3
68446.4,31155.4
68446.5,31155.5
68460.2,31172.2
68460.3,31172.3
68477.1,31186.1
68477.2,31186.2
68496.3,31196.4
68496.5,31196.4
68520.2,31203.6
68529,31207.3
68536.9,31212.6
68543.6,31219.3
68548.9,31227.2
68552.5,31235.9
68554.4,31245.3
68554.4,31254.7
68552.5,31264.1
68548.9,31272.8
68543.6,31280.7
68536.9,31287.4
68529,31292.7
68520.2,31296.4
68496.5,31303.6
68496.3,31303.6
68477.2,31313.8
68477.1,31313.9
68460.3,31327.7
68460.2,31327.8
68446.5,31344.5
68446.4,31344.6
68436.2,31363.7
68436.1,31363.9
68429.8,31384.6
68429.8,31384.8
68427.5,31408.7
68427.4,31408.8
68427.4,31431
68427.8,31431.7
68428.6,31431.7
68429,31431.1
68431.6,31404.8
68439.3,31379.5
68451.7,31356.3
68468.4,31335.9
68488.8,31319.1
68512.1,31306.7
68537.3,31299
68563.6,31296.5
68834.2,31296.5
68860.5,31299
68885.7,31306.7
68909,31319.1
68929.4,31335.9
68946.1,31356.3
68958.5,31379.5
68966.2,31404.8
68968.8,31431.1
68969.2,31431.7
68970,31431.6
68970.4,31431
68970.4,31408.8
68970.4,31408.7
68968,31384.8
68968,31384.6
68961.7,31363.9
68961.6,31363.7
68951.4,31344.6
68951.3,31344.5
68937.6,31327.8
68937.5,31327.7
68920.7,31313.9
68920.6,31313.8
68901.5,31303.6
68901.4,31303.6
68877.6,31296.4
68868.8,31292.7
68860.9,31287.4
68854.2,31280.7
68848.9,31272.8
68845.3,31264.1
68843.4,31254.7
68843.4,31245.3
68845.3,31235.9
68848.9,31227.2
68854.2,31219.3
68860.9,31212.6
68868.8,31207.3
68877.6,31203.6
68901.4,31196.4
68901.5,31196.4
68920.6,31186.2
68920.7,31186.1
68937.5,31172.3
68937.6,31172.2
68951.3,31155.5
68951.4,31155.4
68961.6,31136.3
68961.7,31136.1
68968,31115.4
68968,31115.2
68970.4,31091.3
68970.4,31091.2
68970.4,31069
68970,31068.3
68969.2,31068.3
68968.8,31068.9
68966.2,31095.2
68958.5,31120.5
68946.1,31143.7
68929.4,31164.1
68909,31180.9
68885.7,31193.3
68860.5,31201
68834.2,31203.5
68563.6,31203.5
68537.3,31201
68512.1,31193.3
68488.8,31180.9
68468.4,31164.1
68451.7,31143.7
68439.3,31120.5
68431.6,31095.2
68429,31068.9
68428.6,31068.3
Z" /> 
<path style="fill:#000000; fill-opacity:1.0; 
stroke:#000000; stroke-width:39.3701; stroke-opacity:1; 
stroke-linecap:round; stroke-linejoin:round;fill-rule:evenodd;"
d="M 67778,31068.4
67777.6,31069
67777.6,31091.2
67777.6,31091.3
67780,31115.2
67780,31115.4
67786.3,31136.1
67786.4,31136.3
67796.6,31155.4
67796.7,31155.5
67810.4,31172.2
67810.5,31172.3
67827.3,31186.1
67827.4,31186.2
67846.5,31196.4
67846.6,31196.4
67870.4,31203.6
67879.2,31207.3
67887.1,31212.6
67893.8,31219.3
67899.1,31227.2
67902.7,31235.9
67904.6,31245.3
67904.6,31254.7
67902.7,31264.1
67899.1,31272.8
67893.8,31280.7
67887.1,31287.4
67879.2,31292.7
67870.4,31296.4
67846.6,31303.6
67846.5,31303.6
67827.4,31313.8
67827.3,31313.9
67810.5,31327.7
67810.4,31327.8
67796.7,31344.5
67796.6,31344.6
67786.4,31363.7
67786.3,31363.9
67780,31384.6
67780,31384.8
67777.6,31408.7
67777.6,31408.8
67777.6,31431
67778,31431.7
67778.8,31431.7
67779.2,31431.1
67781.8,31404.8
67789.5,31379.5
67801.9,31356.3
67818.6,31335.9
67839,31319.1
67862.3,31306.7
67887.5,31299
67913.8,31296.5
68184.4,31296.5
68210.7,31299
68235.9,31306.7
68259.2,31319.1
68279.6,31335.9
68296.3,31356.3
68308.7,31379.5
68316.4,31404.8
68319,31431.1
68319.4,31431.7
68320.2,31431.6
68320.6,31431
68320.6,31408.8
68320.5,31408.7
68318.2,31384.8
68318.2,31384.6
68311.9,31363.9
68311.8,31363.7
68301.6,31344.6
68301.5,31344.5
68287.8,31327.8
68287.7,31327.7
68270.9,31313.9
68270.8,31313.8
68251.7,31303.6
68251.5,31303.6
68227.8,31296.4
68219,31292.7
68211.1,31287.4
68204.4,31280.7
68199.1,31272.8
68195.5,31264.1
68193.6,31254.7
68193.6,31245.3
68195.5,31235.9
68199.1,31227.2
68204.4,31219.3
68211.1,31212.6
68219,31207.3
68227.8,31203.6
68251.5,31196.4
68251.7,31196.4
68270.8,31186.2
68270.9,31186.1
68287.7,31172.3
68287.8,31172.2
68301.5,31155.5
68301.6,31155.4
68311.8,31136.3
68311.9,31136.1
68318.2,31115.4
68318.2,31115.2
68320.5,31091.3
68320.6,31091.2
68320.6,31069
68320.2,31068.3
68319.4,31068.3
68319,31068.9
68316.4,31095.2
68308.7,31120.5
68296.3,31143.7
68279.6,31164.1
68259.2,31180.9
68235.9,31193.3
68210.7,31201
68184.4,31203.5
67913.8,31203.5
67887.5,31201
67862.3,31193.3
67839,31180.9
67818.6,31164.1
67801.9,31143.7
67789.5,31120.5
67781.8,31095.2
67779.2,31068.9
67778.8,31068.3
Z" /> 
<path style="fill:#000000; fill-opacity:1.0; 
stroke:#000000; stroke-width:39.3701; stroke-opacity:1; 
stroke-linecap:round; stroke-linejoin:round;fill-rule:evenodd;"
d="M 69166,31068.4
69165.6,31069
69165.6,31091.2
69165.6,31091.3
69168,31115.2
69168,31115.4
69174.3,31136.1
69174.4,31136.3
69184.6,31155.4
69184.7,31155.5
69198.4,31172.2
69198.5,31172.3
69215.3,31186.1
69215.4,31186.2
69234.5,31196.4
69234.6,31196.4
69258.4,31203.6
69267.2,31207.3
69275.1,31212.6
69281.8,31219.3
69287.1,31227.2
69290.7,31235.9
69292.6,31245.3
69292.6,31254.7
69290.7,31264.1
69287.1,31272.8
69281.8,31280.7
69275.1,31287.4
69267.2,31292.7
69258.4,31296.4
69234.6,31303.6
69234.5,31303.6
69215.4,31313.8
69215.3,31313.9
69198.5,31327.7
69198.4,31327.8
69184.7,31344.5
69184.6,31344.6
69174.4,31363.7
69174.3,31363.9
69168,31384.6
69168,31384.8
69165.6,31408.7
69165.6,31408.8
69165.6,31431
69166,31431.7
69166.8,31431.7
69167.2,31431.1
69169.8,31404.8
69177.5,31379.5
69189.9,31356.3
69206.6,31335.9
69227,31319.1
69250.3,31306.7
69275.5,31299
69301.8,31296.5
69572.4,31296.5
69598.7,31299
69623.9,31306.7
69647.2,31319.1
69667.6,31335.9
69684.3,31356.3
69696.7,31379.5
69704.4,31404.8
69707,31431.1
69707.4,31431.7
69708.2,31431.6
69708.6,31431
69708.6,31408.8
69708.5,31408.7
69706.2,31384.8
69706.2,31384.6
69699.9,31363.9
69699.8,31363.7
69689.6,31344.6
69689.5,31344.5
69675.8,31327.8
69675.7,31327.7
69658.9,31313.9
69658.8,31313.8
69639.7,31303.6
69639.5,31303.6
69615.8,31296.4
69607,31292.7
69599.1,31287.4
69592.4,31280.7
69587.1,31272.8
69583.5,31264.1
69581.6,31254.7
69581.6,31245.3
69583.5,31235.9
69587.1,31227.2
69592.4,31219.3
69599.1,31212.6
69607,31207.3
69615.8,31203.6
69639.5,31196.4
69639.7,31196.4
69658.8,31186.2
69658.9,31186.1
69675.7,31172.3
69675.8,31172.2
69689.5,31155.5
69689.6,31155.4
69699.8,31136.3
69699.9,31136.1
69706.2,31115.4
69706.2,31115.2
69708.5,31091.3
69708.6,31091.2
69708.6,31069
69708.2,31068.3
69707.4,31068.3
69707,31068.9
69704.4,31095.2
69696.7,31120.5
69684.3,31143.7
69667.6,31164.1
69647.2,31180.9
69623.9,31193.3
69598.7,31201
69572.4,31203.5
69301.8,31203.5
69275.5,31201
69250.3,31193.3
69227,31180.9
69206.6,31164.1
69189.9,31143.7
69177.5,31120.5
69169.8,31095.2
69167.2,31068.9
69166.8,31068.3
Z" /> 
<path style="fill:#000000; fill-opacity:1.0; 
stroke:#000000; stroke-width:39.3701; stroke-opacity:1; 
stroke-linecap:round; stroke-linejoin:round;fill-rule:evenodd;"
d="M 69571.7,30495.3
69571.7,30496.1
69572.4,30496.5
69598.7,30499
69623.9,30506.7
69647.2,30519.1
69667.6,30535.9
69684.3,30556.3
69696.7,30579.5
69704.4,30604.8
69707,30631.1
69707.4,30631.7
69708.2,30631.6
69708.6,30631
69708.6,30608.8
69708.5,30608.7
69706.2,30584.8
69706.2,30584.6
69699.9,30563.9
69699.8,30563.7
69689.6,30544.6
69689.5,30544.5
69675.8,30527.8
69675.7,30527.7
69658.9,30513.9
69658.8,30513.8
69639.7,30503.6
69639.5,30503.6
69618.8,30497.3
69618.7,30497.2
69594.7,30494.9
69594.6,30494.9
69572.4,30494.9
Z" /> 
<path style="fill:#000000; fill-opacity:1.0; 
stroke:#000000; stroke-width:39.3701; stroke-opacity:1; 
stroke-linecap:round; stroke-linejoin:round;fill-rule:evenodd;"
d="M 68833.6,30495.3
68833.6,30496.1
68834.2,30496.5
68860.5,30499
68885.7,30506.7
68909,30519.1
68929.4,30535.9
68946.1,30556.3
68958.5,30579.5
68966.2,30604.8
68968.8,30631.1
68969.2,30631.7
68970,30631.6
68970.4,30631
68970.4,30608.8
68970.4,30608.7
68968,30584.8
68968,30584.6
68961.7,30563.9
68961.6,30563.7
68951.4,30544.6
68951.3,30544.5
68937.6,30527.8
68937.5,30527.7
68920.7,30513.9
68920.6,30513.8
68901.5,30503.6
68901.4,30503.6
68880.6,30497.3
68880.5,30497.2
68856.5,30494.9
68856.4,30494.9
68834.2,30494.9
Z" /> 
<path style="fill:#000000; fill-opacity:1.0; 
stroke:#000000; stroke-width:39.3701; stroke-opacity:1; 
stroke-linecap:round; stroke-linejoin:round;fill-rule:evenodd;"
d="M 68183.7,30495.3
68183.7,30496.1
68184.4,30496.5
68210.7,30499
68235.9,30506.7
68259.2,30519.1
68279.6,30535.9
68296.3,30556.3
68308.7,30579.5
68316.4,30604.8
68319,30631.1
68319.4,30631.7
68320.2,30631.6
68320.6,30631
68320.6,30608.8
68320.5,30608.7
68318.2,30584.8
68318.2,30584.6
68311.9,30563.9
68311.8,30563.7
68301.6,30544.6
68301.5,30544.5
68287.8,30527.8
68287.7,30527.7
68270.9,30513.9
68270.8,30513.8
68251.7,30503.6
68251.5,30503.6
68230.8,30497.3
68230.7,30497.2
68206.7,30494.9
68206.6,30494.9
68184.4,30494.9
Z" /> 
<path style="fill:#000000; fill-opacity:1.0; 
stroke:#000000; stroke-width:39.3701; stroke-opacity:1; 
stroke-linecap:round; stroke-linejoin:round;fill-rule:evenodd;"
d="M 67445.6,30495.3
67445.6,30496.1
67446.2,30496.5
67472.5,30499
67497.7,30506.7
67521,30519.1
67541.4,30535.9
67558.1,30556.3
67570.5,30579.5
67578.2,30604.8
67580.8,30631.1
67581.2,30631.7
67582,30631.6
67582.4,30631
67582.4,30608.8
67582.4,30608.7
67580,30584.8
67580,30584.6
67573.7,30563.9
67573.6,30563.7
67563.4,30544.6
67563.3,30544.5
67549.6,30527.8
67549.5,30527.7
67532.7,30513.9
67532.6,30513.8
67513.5,30503.6
67513.4,30503.6
67492.6,30497.3
67492.5,30497.2
67468.5,30494.9
67468.4,30494.9
67446.2,30494.9
Z" /> 
<path style="fill:#000000; fill-opacity:1.0; 
stroke:#000000; stroke-width:39.3701; stroke-opacity:1; 
stroke-linecap:round; stroke-linejoin:round;fill-rule:evenodd;"
d="M 69279.5,30494.9
69255.5,30497.2
69255.4,30497.3
69234.6,30503.6
69234.5,30503.6
69215.4,30513.8
69215.3,30513.9
69198.5,30527.7
69198.4,30527.8
69184.7,30544.5
69184.6,30544.6
69174.4,30563.7
69174.3,30563.9
69168,30584.6
69168,30584.8
69165.6,30608.7
69165.6,30608.8
69165.6,30631
69166,30631.7
69166.8,30631.7
69167.2,30631.1
69169.8,30604.8
69177.5,30579.5
69189.9,30556.3
69206.6,30535.9
69227,30519.1
69250.3,30506.7
69275.5,30499
69301.8,30496.5
69302.5,30496
69302.4,30495.2
69301.8,30494.9
69279.6,30494.9
Z" /> 
<path style="fill:#000000; fill-opacity:1.0; 
stroke:#000000; stroke-width:39.3701; stroke-opacity:1; 
stroke-linecap:round; stroke-linejoin:round;fill-rule:evenodd;"
d="M 68541.3,30494.9
68517.3,30497.2
68517.2,30497.3
68496.5,30503.6
68496.3,30503.6
68477.2,30513.8
68477.1,30513.9
68460.3,30527.7
68460.2,30527.8
68446.5,30544.5
68446.4,30544.6
68436.2,30563.7
68436.1,30563.9
68429.8,30584.6
68429.8,30584.8
68427.5,30608.7
68427.4,30608.8
68427.4,30631
68427.8,30631.7
68428.6,30631.7
68429,30631.1
68431.6,30604.8
68439.3,30579.5
68451.7,30556.3
68468.4,30535.9
68488.8,30519.1
68512.1,30506.7
68537.3,30499
68563.6,30496.5
68564.3,30496
68564.2,30495.2
68563.6,30494.9
68541.4,30494.9
Z" /> 
<path style="fill:#000000; fill-opacity:1.0; 
stroke:#000000; stroke-width:39.3701; stroke-opacity:1; 
stroke-linecap:round; stroke-linejoin:round;fill-rule:evenodd;"
d="M 67153.3,30494.9
67129.3,30497.2
67129.2,30497.3
67108.5,30503.6
67108.3,30503.6
67089.2,30513.8
67089.1,30513.9
67072.3,30527.7
67072.2,30527.8
67058.5,30544.5
67058.4,30544.6
67048.2,30563.7
67048.1,30563.9
67041.8,30584.6
67041.8,30584.8
67039.5,30608.7
67039.4,30608.8
67039.4,30631
67039.8,30631.7
67040.6,30631.7
67041,30631.1
67043.6,30604.8
67051.3,30579.5
67063.7,30556.3
67080.4,30535.9
67100.8,30519.1
67124.1,30506.7
67149.3,30499
67175.6,30496.5
67176.3,30496
67176.2,30495.2
67175.6,30494.9
67153.4,30494.9
Z" /> 
<path style="fill:#000000; fill-opacity:1.0; 
stroke:#000000; stroke-width:39.3701; stroke-opacity:1; 
stroke-linecap:round; stroke-linejoin:round;fill-rule:evenodd;"
d="M 67891.5,30494.9
67867.5,30497.2
67867.4,30497.3
67846.6,30503.6
67846.5,30503.6
67827.4,30513.8
67827.3,30513.9
67810.5,30527.7
67810.4,30527.8
67796.7,30544.5
67796.6,30544.6
67786.4,30563.7
67786.3,30563.9
67780,30584.6
67780,30584.8
67777.6,30608.7
67777.6,30608.8
67777.6,30631
67778,30631.7
67778.8,30631.7
67779.2,30631.1
67781.8,30604.8
67789.5,30579.5
67801.9,30556.3
67818.6,30535.9
67839,30519.1
67862.3,30506.7
67887.5,30499
67913.8,30496.5
67914.5,30496
67914.4,30495.2
67913.8,30494.9
67891.6,30494.9
Z" /> 
</g> 
</svg>
